<svg width="624" height="351" xmlns="http://www.w3.org/2000/svg" xmlns:xlink="http://www.w3.org/1999/xlink" xml:space="preserve" overflow="hidden"><g transform="translate(-96 -96)"><path d="M96 96 720 96 720 447 96 447Z" fill="#E5E5E5"/><path d="M641.46 96.0514 641.46 116.798 596.165 116.798 596.165 96.0809 595.346 96.0816 595.346 116.799 550.584 116.799 550.584 96.1105 549.765 96.1112 549.765 116.798 504.999 116.798 504.999 96.1404 504.184 96.1411 504.184 116.799 459.418 116.799 459.418 96.17 458.599 96.1706 458.599 116.798 413.835 116.798 413.835 96.1999 413.018 96.2005 413.018 116.799 368.253 116.799 368.253 96.2294 367.435 96.2301 367.435 116.798 322.671 116.798 322.671 96.2594 321.853 96.26 321.853 116.799 277.088 116.799 277.088 96.2889 276.271 96.2896 276.271 116.798 231.506 116.798 231.506 96.3188 230.688 96.3195 230.688 116.799 185.924 116.799 185.924 96.3484 185.106 96.3491 185.106 436.694 642.143 436.694 642.143 96.0507 641.46 96.0514ZM230.688 435.875 185.924 435.875 185.924 391.11 230.688 391.11 230.688 435.875ZM230.688 390.293 185.924 390.293 185.924 345.528 230.688 345.528 230.688 390.293ZM230.688 344.71 185.924 344.71 185.924 299.946 230.688 299.946 230.688 344.71ZM230.688 299.128 185.924 299.128 185.924 254.363 230.688 254.363 230.688 299.128ZM230.688 253.545 185.924 253.545 185.924 208.852 230.688 208.846 230.688 253.545ZM230.688 208.028 185.924 208.034 185.924 163.198 230.688 163.198 230.688 208.028ZM230.688 162.381 185.924 162.381 185.924 117.616 230.688 117.616 230.688 162.381ZM276.271 435.875 231.506 435.875 231.506 391.11 276.271 391.11 276.271 435.875 276.271 435.875ZM276.271 390.293 231.506 390.293 231.506 345.528 276.271 345.528 276.271 390.293 276.271 390.293ZM276.271 344.71 231.506 344.71 231.506 299.946 276.271 299.946 276.271 344.71 276.271 344.71ZM276.271 299.128 231.506 299.128 231.506 254.363 276.271 254.363 276.271 299.128 276.271 299.128ZM276.271 253.545 231.506 253.545 231.506 208.846 276.271 208.84 276.271 253.545 276.271 253.545ZM276.271 208.023 231.506 208.028 231.506 163.198 276.271 163.198 276.271 208.023ZM276.271 162.381 231.506 162.381 231.506 117.616 276.271 117.616 276.271 162.381 276.271 162.381ZM321.853 435.875 277.088 435.875 277.088 391.11 321.853 391.11 321.853 435.875ZM321.853 390.293 277.088 390.293 277.088 345.528 321.853 345.528 321.853 390.293ZM321.853 344.71 277.088 344.71 277.088 299.946 321.853 299.946 321.853 344.71ZM321.853 299.128 277.088 299.128 277.088 254.363 321.853 254.363 321.853 299.128ZM321.853 253.545 277.088 253.545 277.088 208.84 321.853 208.834 321.853 253.545ZM321.853 208.017 277.088 208.023 277.088 163.199 321.853 163.199 321.853 208.017ZM321.853 162.381 277.088 162.381 277.088 117.616 321.853 117.616 321.853 162.381ZM367.435 435.875 322.671 435.875 322.671 391.11 367.435 391.11 367.435 435.875 367.435 435.875ZM367.435 390.293 322.671 390.293 322.671 345.528 367.435 345.528 367.435 390.293 367.435 390.293ZM367.435 344.71 322.671 344.71 322.671 299.946 367.435 299.946 367.435 344.71ZM367.435 299.128 322.671 299.128 322.671 254.363 367.435 254.363 367.435 299.128 367.435 299.128ZM367.435 253.545 322.671 253.545 322.671 208.834 367.435 208.828 367.435 253.545 367.435 253.545ZM367.435 208.011 322.671 208.016 322.671 163.198 367.435 163.198 367.435 208.011ZM367.435 162.381 322.671 162.381 322.671 117.616 367.435 117.616 367.435 162.381 367.435 162.381ZM413.018 435.875 368.253 435.875 368.253 391.11 413.018 391.11 413.018 435.875ZM413.018 390.293 368.253 390.293 368.253 345.528 413.018 345.528 413.018 390.293ZM413.018 344.71 368.253 344.71 368.253 299.946 413.018 299.946 413.018 344.71ZM413.018 299.128 368.253 299.128 368.253 254.363 413.018 254.363 413.018 299.128ZM413.018 253.545 368.253 253.545 368.253 208.828 413.018 208.822 413.018 253.545ZM413.018 208.005 368.253 208.011 368.253 163.198 413.018 163.198 413.018 208.005ZM413.018 162.381 368.253 162.381 368.253 117.616 413.018 117.616 413.018 162.381ZM458.599 435.875 413.835 435.875 413.835 391.11 458.599 391.11 458.599 435.875 458.599 435.875ZM458.599 390.293 413.835 390.293 413.835 345.528 458.599 345.528 458.599 390.293 458.599 390.293ZM458.599 344.71 413.836 344.71 413.836 299.946 458.599 299.946 458.599 344.71ZM458.599 299.128 413.835 299.128 413.835 254.363 458.599 254.363 458.599 299.128 458.599 299.128ZM458.599 253.545 413.835 253.545 413.835 208.822 458.599 208.817 458.599 253.545 458.599 253.545ZM458.599 207.999 413.836 208.005 413.836 163.198 458.599 163.198 458.599 207.999ZM458.599 162.381 413.835 162.381 413.835 117.616 458.599 117.616 458.599 162.381 458.599 162.381ZM504.184 435.875 459.418 435.875 459.418 391.11 504.184 391.11 504.184 435.875ZM504.184 390.293 459.418 390.293 459.418 345.528 504.184 345.528 504.184 390.293ZM504.184 344.71 459.418 344.71 459.418 299.946 504.184 299.946 504.184 344.71ZM504.184 299.128 459.418 299.128 459.418 254.363 504.184 254.363 504.184 299.128ZM504.184 253.545 459.418 253.545 459.418 208.817 504.184 208.811 504.184 253.545ZM504.184 207.993 459.418 207.999 459.418 163.198 504.184 163.198 504.184 207.993ZM504.184 162.381 459.418 162.381 459.418 117.616 504.184 117.616 504.184 162.381ZM549.765 435.875 504.999 435.875 504.999 391.11 549.765 391.11 549.765 435.875ZM549.765 390.293 504.999 390.293 504.999 345.528 549.765 345.528 549.765 390.293ZM549.765 344.71 504.999 344.71 504.999 299.946 549.765 299.946 549.765 344.71ZM549.765 299.128 504.999 299.128 504.999 254.363 549.765 254.363 549.765 299.128ZM549.765 253.545 504.999 253.545 504.999 208.81 549.765 208.805 549.765 253.545ZM549.765 207.987 504.999 207.993 504.999 163.198 549.765 163.198 549.765 207.987ZM549.765 162.381 504.999 162.381 504.999 117.616 549.765 117.616 549.765 162.381ZM595.346 435.875 550.584 435.875 550.584 391.11 595.346 391.11 595.346 435.875 595.346 435.875ZM595.346 390.293 550.584 390.293 550.584 345.528 595.346 345.528 595.346 390.293 595.346 390.293ZM595.346 344.71 550.584 344.71 550.584 299.946 595.346 299.946 595.346 344.71 595.346 344.71ZM595.346 299.128 550.584 299.128 550.584 254.363 595.346 254.363 595.346 299.128 595.346 299.128ZM595.346 253.545 550.584 253.545 550.584 208.805 595.346 208.799 595.346 253.545 595.346 253.545ZM595.346 207.981 550.584 207.987 550.584 163.198 595.346 163.198 595.346 207.981 595.346 207.981ZM595.346 162.381 550.584 162.381 550.584 117.616 595.346 117.616 595.346 162.381 595.346 162.381ZM641.46 435.875 596.165 435.875 596.165 391.11 641.46 391.11 641.46 435.875ZM641.46 390.293 596.165 390.293 596.165 345.528 641.46 345.528 641.46 390.293ZM641.46 344.71 596.165 344.71 596.165 299.946 641.46 299.946 641.46 344.71ZM641.46 299.128 596.165 299.128 596.165 254.363 641.46 254.363 641.46 299.128ZM641.46 253.545 596.165 253.545 596.165 208.799 641.46 208.793 641.46 253.545ZM641.46 207.975 596.165 207.981 596.165 163.198 641.46 163.198 641.46 207.975ZM641.46 162.381 596.165 162.381 596.165 117.616 641.46 117.616 641.46 162.381Z" fill="#D1D1D1"/><path d="M609.077 224.352C595.024 210.297 574.098 205.167 555.449 197.434 537.46 189.974 519.189 178.548 498.499 178.548 477.81 178.548 459.538 189.974 441.55 197.434 422.901 205.167 401.975 210.297 387.921 224.352 373.866 238.406 368.737 259.331 361.003 277.98 353.543 295.971 342.118 314.242 342.118 334.93 342.118 355.618 353.543 373.89 361.003 391.88 368.737 410.529 373.866 431.455 387.921 445.508 388.363 445.95 388.812 446.382 389.267 446.808L607.881 446.665C608.284 446.288 608.684 445.901 609.077 445.508 623.134 431.455 628.262 410.529 635.994 391.88 643.456 373.89 654.88 355.618 654.88 334.93 654.88 314.242 643.456 295.971 635.994 277.98 628.262 259.331 623.134 238.406 609.077 224.352Z" fill="#D1D1D1"/><path d="M614.398 212.954C600.341 198.9 579.418 193.77 560.77 186.037 542.777 178.577 524.506 167.151 503.816 167.151 483.13 167.151 464.859 178.577 446.867 186.037 428.218 193.77 407.294 198.9 393.239 212.954 379.185 227.008 374.055 247.934 366.322 266.583 358.862 284.573 347.436 302.845 347.436 323.533 347.436 344.221 358.862 362.492 366.322 380.483 374.055 399.132 379.185 420.057 393.239 434.11 398.525 439.398 404.783 443.418 411.526 446.795L596.35 446.675C603 443.324 609.175 439.336 614.398 434.11 628.451 420.057 633.582 399.132 641.314 380.483 648.773 362.493 660.2 344.221 660.2 323.533 660.2 302.845 648.773 284.573 641.314 266.583 633.579 247.934 628.451 227.008 614.398 212.954Z" fill="#FFFFFF"/><path d="M648.666 295.166 645.624 295.166 645.624 307.196 637.944 307.196C629.149 238.447 570.269 185.135 499.169 185.135 422.017 185.135 359.251 247.901 359.251 325.052 359.251 377.16 387.884 422.703 430.243 446.782L430.373 446.782 448.518 446.769C448.527 446.769 448.527 446.766 448.521 446.763 400.744 427.233 367.856 380.6 367.856 325.052 367.856 251.461 425.576 193.657 499.169 193.657 567.757 193.657 622.757 243.603 630.144 310.253L630.3 313.275 645.624 313.275 645.624 336.83 630.3 336.83 630.144 339.851C624.71 388.873 593.52 428.933 550.109 446.698 550.103 446.701 550.103 446.704 550.113 446.704L568.251 446.691C605.606 425.391 632.253 387.381 637.941 342.909L644.106 342.909 644.106 358.232 650.183 358.232 650.183 342.909 655.504 342.909 655.504 336.831 648.666 336.831 648.666 313.276 655.504 313.276 655.504 307.197 648.666 307.197 648.666 295.166 648.666 295.166Z" fill="#505050"/><path d="M498.828 191.323C425.199 191.508 365.319 251.646 365.439 325.274 365.527 379.181 397.677 425.709 443.799 446.772L472.308 446.753C472.324 446.753 472.324 446.75 472.308 446.746 416.635 434.471 374.813 384.85 374.557 325.598 374.261 256.858 430.113 200.613 498.85 200.441 567.708 200.269 623.78 256.236 623.78 325.052 623.78 384.489 581.95 434.338 526.183 446.714 526.167 446.717 526.167 446.72 526.183 446.72L554.695 446.701C600.797 425.573 632.897 378.992 632.897 325.052 632.897 251.2 572.723 191.138 498.828 191.323Z" fill="#737373"/><path d="M499.169 428.767C497.648 428.767 496.104 428.735 494.583 428.67L494.616 427.909C496.127 427.974 497.658 428.01 499.169 428.01L499.393 428.01 499.393 428.767 499.169 428.767ZM503.979 428.66 503.946 427.9C505.454 427.831 506.982 427.727 508.49 427.591L508.558 428.348C507.04 428.485 505.5 428.589 503.979 428.66ZM490.004 428.368C488.486 428.238 486.952 428.069 485.444 427.867L485.545 427.116C487.04 427.311 488.564 427.48 490.072 427.614L490.004 428.368ZM513.115 427.838 513.014 427.087C514.509 426.886 516.023 426.648 517.512 426.379L517.648 427.126C516.147 427.396 514.623 427.636 513.115 427.838ZM480.91 427.168C479.406 426.899 477.895 426.596 476.412 426.265L476.578 425.524C478.047 425.852 479.552 426.154 481.044 426.418L480.91 427.168ZM522.143 426.216 521.977 425.475C523.446 425.14 524.935 424.77 526.394 424.37L526.596 425.105C525.123 425.504 523.625 425.882 522.143 426.216ZM471.96 425.163C470.494 424.767 469.015 424.328 467.559 423.863L467.79 423.142C469.237 423.6 470.705 424.035 472.158 424.429L471.96 425.163ZM530.993 423.795 530.759 423.07C532.202 422.609 533.648 422.105 535.062 421.578L535.328 422.29C533.905 422.82 532.446 423.327 530.993 423.795ZM463.211 422.365C461.781 421.839 460.345 421.27 458.934 420.675L459.23 419.975C460.627 420.564 462.057 421.13 463.474 421.653L463.211 422.365ZM539.579 420.601 539.284 419.901C540.668 419.315 542.062 418.687 543.427 418.037L543.752 418.723C542.381 419.378 540.977 420.01 539.579 420.601ZM454.738 418.797C453.36 418.142 451.979 417.448 450.634 416.734L450.988 416.063C452.323 416.772 453.695 417.461 455.063 418.111L454.738 418.797ZM547.841 416.661 547.487 415.99C548.819 415.28 550.155 414.531 551.452 413.765L551.839 414.42C550.529 415.191 549.187 415.946 547.841 416.661ZM446.623 414.492C445.31 413.72 443.997 412.906 442.716 412.074L443.132 411.437C444.403 412.263 445.706 413.071 447.007 413.837L446.623 414.492ZM555.729 412.003 555.316 411.366C556.583 410.54 557.844 409.676 559.07 408.798L559.512 409.416C558.28 410.3 557.006 411.17 555.729 412.003ZM438.924 409.487C437.682 408.601 436.447 407.675 435.248 406.735L435.716 406.137C436.905 407.07 438.134 407.989 439.366 408.869L438.924 409.487ZM563.181 406.664 562.71 406.067C563.899 405.134 565.082 404.162 566.226 403.177L566.724 403.753C565.566 404.745 564.377 405.725 563.181 406.664ZM431.699 403.826C430.539 402.832 429.391 401.802 428.28 400.763L428.8 400.208C429.902 401.24 431.042 402.263 432.193 403.249L431.699 403.826ZM570.136 400.688 569.616 400.134C570.721 399.098 571.813 398.025 572.866 396.945L573.412 397.476C572.349 398.564 571.247 399.645 570.136 400.688ZM425.004 397.554C423.938 396.464 422.882 395.337 421.868 394.204L422.433 393.697C423.441 394.822 424.487 395.941 425.547 397.023L425.004 397.554ZM576.542 394.122 575.976 393.616C576.984 392.488 577.978 391.323 578.934 390.152L579.522 390.633C578.56 391.812 577.556 392.986 576.542 394.122ZM418.886 390.721C417.924 389.547 416.973 388.333 416.059 387.111L416.668 386.656C417.575 387.869 418.519 389.074 419.473 390.239L418.886 390.721ZM582.349 387.015 581.738 386.561C582.645 385.346 583.536 384.096 584.384 382.849L585.011 383.276C584.16 384.532 583.263 385.79 582.349 387.015ZM413.396 383.381C412.54 382.125 411.7 380.831 410.899 379.537L411.546 379.137C412.34 380.422 413.174 381.706 414.024 382.953L413.396 383.381ZM587.51 379.421 586.864 379.022C587.657 377.732 588.433 376.409 589.168 375.089L589.834 375.458C589.093 376.788 588.31 378.121 587.51 379.421ZM408.576 375.589C407.835 374.263 407.113 372.902 406.43 371.543L407.109 371.202C407.787 372.551 408.504 373.902 409.239 375.218L408.576 375.589ZM591.979 371.396 591.3 371.056C591.979 369.702 592.636 368.314 593.25 366.931L593.945 367.241C593.325 368.634 592.662 370.032 591.979 371.396ZM404.466 367.407C403.846 366.022 403.248 364.603 402.689 363.19L403.395 362.91C403.95 364.314 404.544 365.722 405.16 367.096L404.466 367.407ZM595.723 363 595.015 362.722C595.567 361.316 596.1 359.874 596.591 358.438L597.309 358.684C596.815 360.131 596.279 361.584 595.723 363ZM401.096 358.887C400.6 357.448 400.129 355.978 399.697 354.517L400.426 354.302C400.855 355.752 401.322 357.211 401.815 358.639L401.096 358.887ZM598.7 354.312 597.972 354.098C598.398 352.648 598.794 351.169 599.155 349.701L599.893 349.882C599.529 351.361 599.129 352.851 598.7 354.312ZM398.494 350.09C398.128 348.612 397.79 347.106 397.49 345.614L398.235 345.464C398.533 346.945 398.868 348.44 399.232 349.908L398.494 350.09ZM600.887 345.404 600.143 345.255C600.439 343.773 600.705 342.264 600.933 340.77L601.684 340.885C601.453 342.39 601.187 343.91 600.887 345.404ZM396.685 341.097C396.452 339.593 396.249 338.063 396.082 336.55L396.837 336.467C397.003 337.968 397.204 339.487 397.436 340.981L396.685 341.097ZM602.279 336.337 601.521 336.255C601.684 334.752 601.817 333.226 601.914 331.718L602.672 331.766C602.574 333.285 602.441 334.823 602.279 336.337ZM395.68 331.98C395.58 330.466 395.512 328.924 395.478 327.397L396.237 327.38C396.271 328.896 396.339 330.426 396.438 331.93L395.68 331.98ZM602.863 327.184 602.103 327.168C602.119 326.464 602.126 325.759 602.126 325.052 602.126 324.237 602.116 323.424 602.096 322.613L602.857 322.595C602.876 323.412 602.886 324.231 602.886 325.052 602.886 325.764 602.876 326.474 602.863 327.184ZM396.235 322.825 395.476 322.809C395.508 321.284 395.574 319.743 395.673 318.226L396.431 318.275C396.333 319.781 396.267 321.311 396.235 322.825ZM601.892 318.062C601.791 316.555 601.654 315.029 601.485 313.526L602.243 313.442C602.412 314.956 602.548 316.493 602.649 318.011L601.892 318.062ZM396.826 313.739 396.071 313.656C396.236 312.142 396.438 310.611 396.67 309.108L397.421 309.224C397.19 310.716 396.991 312.236 396.826 313.739ZM600.884 309.013C600.65 307.517 600.377 306.009 600.078 304.531L600.826 304.381C601.125 305.87 601.398 307.389 601.635 308.896L600.884 309.013ZM398.215 304.74 397.47 304.591C397.769 303.097 398.105 301.591 398.47 300.114L399.207 300.296C398.845 301.762 398.511 303.257 398.215 304.74ZM599.077 300.089C598.713 298.619 598.307 297.14 597.878 295.696L598.606 295.479C599.038 296.935 599.444 298.424 599.815 299.905L599.077 300.089ZM400.397 295.9 399.669 295.685C400.099 294.223 400.569 292.752 401.063 291.314L401.782 291.561C401.291 292.989 400.825 294.449 400.397 295.9ZM596.487 291.359C595.993 289.931 595.457 288.495 594.901 287.09L595.606 286.81C596.168 288.225 596.705 289.672 597.205 291.111L596.487 291.359ZM403.362 287.278 402.655 286.999C403.214 285.582 403.814 284.156 404.438 282.761L405.132 283.071C404.512 284.456 403.917 285.871 403.362 287.278ZM593.13 282.906C592.512 281.529 591.856 280.149 591.177 278.803L591.856 278.461C592.538 279.817 593.201 281.208 593.825 282.595L593.13 282.906ZM407.086 278.949 406.407 278.608C407.089 277.249 407.812 275.883 408.558 274.548L409.221 274.918C408.481 276.243 407.763 277.6 407.086 278.949ZM589.044 274.789C588.307 273.473 587.53 272.155 586.73 270.871L587.377 270.471C588.18 271.765 588.963 273.092 589.704 274.417L589.044 274.789ZM411.533 270.988 410.886 270.588C411.687 269.293 412.529 267.996 413.387 266.736L414.015 267.164C413.163 268.415 412.328 269.702 411.533 270.988ZM584.251 267.059C583.399 265.814 582.509 264.57 581.602 263.359L582.21 262.903C583.123 264.122 584.02 265.377 584.878 266.631L584.251 267.059ZM416.664 263.454 416.055 262.999C416.968 261.778 417.92 260.562 418.885 259.384L419.472 259.866C418.515 261.035 417.57 262.242 416.664 263.454ZM578.791 259.779C577.835 258.611 576.838 257.449 575.827 256.324L576.392 255.816C577.409 256.95 578.414 258.121 579.379 259.296L578.791 259.779ZM422.436 256.405 421.871 255.899C422.885 254.765 423.938 253.638 425.004 252.548L425.547 253.08C424.49 254.161 423.444 255.28 422.436 256.405ZM572.713 253.002C571.66 251.926 570.562 250.855 569.453 249.819L569.974 249.264C571.088 250.308 572.193 251.387 573.256 252.47L572.713 253.002ZM428.803 249.894 428.283 249.339C429.391 248.3 430.542 247.27 431.699 246.278L432.193 246.855C431.046 247.84 429.905 248.862 428.803 249.894ZM566.057 246.782C564.91 245.8 563.724 244.829 562.531 243.897L562.999 243.299C564.198 244.237 565.394 245.215 566.551 246.205L566.057 246.782ZM435.713 243.969 435.245 243.371C436.441 242.435 437.676 241.51 438.914 240.623L439.356 241.242C438.124 242.122 436.899 243.04 435.713 243.969ZM558.881 241.17C557.649 240.292 556.382 239.43 555.111 238.606L555.524 237.968C556.804 238.798 558.082 239.667 559.32 240.552L558.881 241.17ZM443.116 238.677 442.7 238.041C443.974 237.213 445.284 236.402 446.597 235.628L446.98 236.282C445.68 237.05 444.377 237.856 443.116 238.677ZM551.231 236.211C549.927 235.445 548.589 234.698 547.25 233.989L547.604 233.317C548.956 234.032 550.304 234.785 551.617 235.556L551.231 236.211ZM450.949 234.062 450.595 233.391C451.94 232.676 453.315 231.984 454.686 231.333L455.011 232.02C453.653 232.666 452.284 233.353 450.949 234.062ZM543.171 231.945C541.802 231.298 540.402 230.672 539.004 230.085L539.297 229.385C540.707 229.976 542.118 230.606 543.496 231.259L543.171 231.945ZM459.158 230.16 458.859 229.46C460.263 228.868 461.693 228.301 463.113 227.774L463.38 228.487C461.97 229.009 460.549 229.572 459.158 230.16ZM534.756 228.412C533.339 227.889 531.887 227.39 530.437 226.93L530.668 226.206C532.127 226.67 533.59 227.172 535.02 227.699L534.756 228.412ZM467.683 226.999 467.452 226.275C468.905 225.809 470.384 225.371 471.849 224.972L472.048 225.705C470.595 226.101 469.126 226.536 467.683 226.999ZM526.069 225.646C524.613 225.253 523.125 224.886 521.646 224.557L521.812 223.815C523.3 224.147 524.802 224.516 526.267 224.912L526.069 225.646ZM476.468 224.606 476.302 223.865C477.787 223.53 479.298 223.225 480.8 222.957L480.933 223.705C479.445 223.971 477.943 224.274 476.468 224.606ZM517.18 223.666C515.698 223.404 514.181 223.171 512.679 222.974L512.78 222.221C514.291 222.419 515.819 222.654 517.314 222.918L517.18 223.666ZM485.431 223.004 485.33 222.251C486.835 222.05 488.369 221.88 489.89 221.745L489.958 222.502C488.447 222.636 486.926 222.805 485.431 223.004ZM508.152 222.483C506.654 222.353 505.126 222.254 503.608 222.19L503.641 221.43C505.168 221.495 506.709 221.595 508.217 221.726L508.152 222.483ZM494.502 222.2 494.47 221.441C495.987 221.373 497.531 221.338 499.055 221.336L499.055 222.096C497.541 222.098 496.01 222.133 494.502 222.2Z" fill="#FFC000"/><path d="M471.762 288.599 467.205 288.599 467.205 287.839 471.762 287.839 471.762 288.599ZM462.645 288.599 458.086 288.599 458.086 287.839 462.645 287.839 462.645 288.599ZM453.526 288.599 448.97 288.599 448.97 287.839 453.526 287.839 453.526 288.599ZM444.41 288.599 439.85 288.599 439.85 287.839 444.41 287.839 444.41 288.599Z" fill="#FFC000"/><path d="M480.966 287.268C480.446 287.272 480.023 287.692 480.02 288.213 480.017 288.739 480.439 289.168 480.966 289.171L503.677 289.316 503.677 287.123 480.966 287.268Z" fill="#737373"/><path d="M570.22 286.755 525.712 287.038 525.712 289.511 570.22 289.794C570.224 289.794 570.237 289.794 570.24 289.794 571.078 289.789 571.755 289.104 571.748 288.264 571.745 287.426 571.059 286.75 570.22 286.755ZM567.828 288.765 556.102 288.765C555.895 288.765 555.722 288.545 555.722 288.275 555.722 288.004 555.895 287.784 556.102 287.784L567.828 287.785C568.04 287.785 568.209 288.004 568.209 288.275 568.209 288.546 568.04 288.765 567.828 288.765Z" fill="#737373"/><path d="M525.026 304.148C518.243 304.148 512.952 306.13 510.368 309.685 505.643 316.19 509.358 328.824 515.646 336.095 523.762 345.472 541.458 350.123 560.89 347.642 560.893 347.641 560.893 347.64 560.893 347.638 560.899 330.725 556.057 317.404 546.544 310.617 541.364 306.92 533.934 304.516 526.677 304.186 526.118 304.161 525.569 304.148 525.026 304.148ZM591.742 197.733C586.974 197.733 582.746 198.898 579.324 201.213 573.678 205.034 569.772 212.322 568.609 221.209 567.292 231.244 569.707 241.201 574.913 247.194 582.115 255.486 597.329 259.163 613.673 256.563 623.111 255.061 631.512 251.761 638.256 247.085 638.256 247.084 638.256 247.083 638.256 247.082 637.378 234.408 633.521 223.422 626.943 215.506 621.336 208.756 612.721 202.931 603.9 199.924 599.607 198.461 595.505 197.733 591.742 197.733ZM552.303 394.339C552.215 394.339 552.125 394.323 552.037 394.29 551.643 394.142 551.445 393.704 551.595 393.311 557.61 377.353 560.678 362.138 560.883 348.997 560.883 348.995 560.883 348.993 560.88 348.994 542.397 351.461 524.106 348.193 514.499 337.089 507.694 329.225 503.917 315.978 509.14 308.791 515.728 299.724 536.297 301.436 547.428 309.379 557.282 316.411 562.333 330.105 562.381 347.433 562.381 347.435 562.381 347.437 562.385 347.437 573.045 345.881 584.16 342.181 594.462 335.941 615.951 322.925 632.286 297.094 637.089 268.528 638.237 261.692 638.652 255.082 638.36 248.854 638.36 248.851 638.357 248.85 638.354 248.851 631.561 253.382 623.225 256.581 613.91 258.063 597.062 260.744 581.303 256.868 573.766 248.19 568.284 241.878 565.729 231.464 567.1 221.011 568.323 211.693 572.466 204.017 578.472 199.953 585.001 195.535 594.205 195.013 604.388 198.485 613.465 201.578 622.334 207.577 628.113 214.533 634.727 222.496 638.672 233.436 639.699 246.036 639.699 246.039 639.702 246.04 639.705 246.039 645.552 241.652 650.021 236.178 652.663 229.92 656.719 220.309 656.557 208.78 652.198 197.458 648.045 186.67 640.576 177.524 631.704 172.366 620.81 166.03 606.754 165.213 592.125 170.066 572.44 176.594 555.413 191.895 547.685 209.998 537.161 234.644 543.668 265.045 564.263 287.448 564.546 287.757 564.526 288.237 564.218 288.522 563.909 288.806 563.428 288.786 563.142 288.477 542.147 265.634 535.53 234.596 546.287 209.402 554.182 190.91 571.563 175.285 591.645 168.624 606.695 163.632 621.193 164.495 632.468 171.052 641.633 176.382 649.338 185.807 653.615 196.912 658.113 208.602 658.273 220.535 654.061 230.511 651.198 237.298 646.274 243.193 639.826 247.832 639.826 247.833 639.826 247.833 639.826 247.835 640.212 254.449 639.813 261.491 638.587 268.779 633.716 297.769 617.108 324.002 595.249 337.241 585.736 343.002 574.062 347.026 562.378 348.78 562.375 348.781 562.375 348.782 562.375 348.784 562.213 362.175 559.122 377.648 553.015 393.846 552.901 394.152 552.612 394.339 552.303 394.339Z" fill="#FFC000"/><path d="M338.708 96.2623 343.897 101.456 341.107 104.25C337.182 108.174 337.182 114.535 341.107 118.46L406.085 183.437C410.009 187.362 416.37 187.362 420.295 183.437L423.09 180.648 428.452 186.012 441.654 172.814 436.285 167.446 439.08 164.652C443.006 160.732 443.006 154.367 439.08 150.442L384.856 96.2187 338.721 96.2486 338.708 96.2623Z" fill="#CFCFCF"/><path d="M436.135 161.174 424.643 172.664C424.172 173.135 423.408 173.135 422.937 172.664L415.318 165.046 428.517 151.848 436.135 159.466C436.607 159.938 436.607 160.702 436.135 161.174Z" fill="#737373"/><path d="M332.89 98.8665C332.883 99.2337 332.899 99.6007 332.941 99.966 333.057 100.98 333.361 101.975 333.857 102.896 333.989 103.14 334.135 103.378 334.293 103.61 334.576 104.025 334.897 104.422 335.265 104.79L402.947 172.472C403.319 172.844 403.721 173.169 404.142 173.454 404.374 173.612 404.613 173.758 404.857 173.889 405.68 174.33 406.562 174.614 407.464 174.752 407.814 174.805 408.166 174.839 408.52 174.846 410.662 174.894 412.819 174.107 414.454 172.472L435.943 150.984C437.438 149.489 438.218 147.557 438.309 145.599 438.319 145.328 438.319 145.057 438.303 144.785 438.257 143.895 438.072 143.01 437.731 142.171 437.62 141.894 437.487 141.624 437.344 141.358 436.977 140.683 436.512 140.047 435.943 139.477L392.679 96.2135 333.385 96.2522C333.079 97.0965 332.909 97.9789 332.89 98.8665Z" fill="#FFFFFF"/><path d="M390.503 96.2148 379.64 107.079 375.793 107.079 386.654 96.2174 385.505 96.2181 374.649 107.079 370.796 107.079 381.655 96.2207 380.503 96.2213 369.646 107.079 365.8 107.079 376.655 96.2239 375.503 96.2246 364.647 107.079 360.803 107.079 371.655 96.2272 370.503 96.2278 359.652 107.079 355.807 107.079 366.655 96.2304 365.503 96.2311 354.654 107.079 350.81 107.079 361.655 96.2337 360.503 96.2343 349.658 107.078 345.814 107.078 356.656 96.2366 355.503 96.2373 344.661 107.078 340.818 107.078 351.656 96.2395 350.504 96.2402 339.666 107.078 337.564 107.078C337.561 107.078 337.559 107.082 337.561 107.084L338.368 107.891 404.359 107.891 403.545 107.078 395.779 107.078 399.662 103.195 399.087 102.619 394.628 107.078 390.782 107.078 397.164 100.696 396.588 100.121 389.632 107.078 385.786 107.078 394.665 98.1993 394.09 97.624 384.635 107.079 380.789 107.079 391.654 96.2142 390.503 96.2148Z" fill="#CDCDCD"/><path d="M406.973 110.507 340.992 110.506C340.988 110.506 340.986 110.511 340.989 110.513L341.795 111.32 407.786 111.32 406.973 110.507Z" fill="#CDCDCD"/><path d="M410.401 113.934 344.42 113.934C344.416 113.934 344.414 113.938 344.417 113.941L345.223 114.747 411.214 114.748 410.401 113.934Z" fill="#CDCDCD"/><path d="M413.829 117.363 347.847 117.362C347.844 117.362 347.842 117.366 347.844 117.369L348.651 118.175 414.642 118.176 413.829 117.363Z" fill="#CDCDCD"/><path d="M417.256 120.79 351.275 120.79C351.272 120.79 351.27 120.794 351.272 120.797L352.079 121.603 418.069 121.604 417.256 120.79Z" fill="#CDCDCD"/><path d="M420.684 124.218 354.703 124.218C354.7 124.218 354.698 124.222 354.7 124.225L355.507 125.031 421.497 125.031 420.684 124.218Z" fill="#CDCDCD"/><path d="M424.113 127.646 358.131 127.646C358.127 127.646 358.125 127.65 358.128 127.652L358.934 128.459 424.926 128.459 424.113 127.646Z" fill="#CDCDCD"/><path d="M427.539 131.074 361.559 131.074C361.555 131.074 361.553 131.078 361.556 131.081L362.362 131.887 428.355 131.887 427.539 131.074Z" fill="#CDCDCD"/><path d="M430.968 134.502 364.987 134.501C364.983 134.501 364.981 134.506 364.984 134.508L365.79 135.315 431.78 135.315 430.968 134.502Z" fill="#CDCDCD"/><path d="M434.396 137.93 368.414 137.929C368.411 137.929 368.409 137.933 368.411 137.936L369.218 138.742 435.199 138.743C435.202 138.743 435.206 138.738 435.202 138.736L434.396 137.93Z" fill="#CDCDCD"/><path d="M437.341 141.357 371.842 141.357C371.839 141.357 371.837 141.361 371.84 141.364L372.646 142.17 437.724 142.17C437.728 142.17 437.728 142.168 437.728 142.165 437.617 141.89 437.484 141.622 437.341 141.357Z" fill="#CDCDCD"/><path d="M438.309 145.599C438.319 145.328 438.319 145.059 438.303 144.789 438.303 144.787 438.303 144.785 438.3 144.785L375.27 144.785C375.267 144.785 375.265 144.789 375.267 144.792L376.074 145.598 381.185 145.598 378.629 148.153 379.204 148.729 382.335 145.598 385.804 145.598 380.939 150.463 381.514 151.038 386.954 145.598 390.424 145.598 383.249 152.773 383.824 153.348 391.574 145.598 395.043 145.598 385.558 155.083 386.134 155.658 396.193 145.599 399.662 145.599 387.868 157.393 388.443 157.968 400.814 145.599 404.282 145.599 390.178 159.703 390.753 160.278 405.432 145.599 408.901 145.599 392.487 162.012 393.063 162.588 410.052 145.599 413.52 145.599 394.797 164.322 395.372 164.897 414.671 145.599 418.14 145.599 397.107 166.632 397.682 167.207 419.29 145.599 422.758 145.599 399.416 168.942 399.992 169.517 423.909 145.6 427.38 145.6 401.726 171.251 402.301 171.827 428.527 145.6 431.998 145.6 404.146 173.451C404.144 173.453 404.144 173.456 404.146 173.457 404.378 173.614 404.614 173.759 404.858 173.889L433.148 145.599 436.616 145.599 407.47 174.746C407.467 174.748 407.469 174.752 407.472 174.753 407.819 174.806 408.169 174.839 408.52 174.846L437.763 145.599 438.309 145.599 438.309 145.599Z" fill="#CDCDCD"/><path d="M335.506 96.2509 332.89 98.8665C332.883 99.2308 332.899 99.5948 332.94 99.9575 332.94 99.9608 332.944 99.9624 332.947 99.9601L336.657 96.2503 335.506 96.2509Z" fill="#CDCDCD"/><path d="M340.505 96.2477 333.857 102.896C333.988 103.138 334.133 103.375 334.291 103.606 334.292 103.608 334.295 103.608 334.297 103.606L341.656 96.247 340.505 96.2477Z" fill="#CDCDCD"/><path d="M345.505 96.2444 336.112 105.637 336.688 106.212 346.656 96.2434Z" fill="#CDCDCD"/><path d="M345.099 256.298 344.982 256.23C343.454 255.349 341.523 255.619 340.294 256.883L297.589 300.856 287.327 311.424 291.326 297.246 307.975 238.241C308.453 236.547 307.717 234.744 306.189 233.869L306.071 233.801 301.784 231.33C301.762 231.317 301.734 231.327 301.725 231.35L261.384 335.291 205.111 373.665C204.132 374.302 202.886 374.3 201.875 373.716 201.869 373.712 201.864 373.71 201.858 373.706 189.438 366.547 173.566 370.812 166.407 383.232 158.936 396.194 163.907 412.916 177.607 419.57 189.195 425.199 203.385 421.315 210.503 410.579 212.889 406.982 214.257 403.042 214.697 399.074 215.719 389.853 220.89 381.713 228.717 377.135 229.331 376.776 229.961 376.439 230.605 376.123 230.63 376.111 232.017 375.464 232.713 375.194L250.557 368.272C252.387 367.562 254.178 366.764 255.928 365.895 256.053 367.845 256.26 369.794 256.563 371.734L259.517 390.645C259.603 391.192 259.661 391.738 259.713 392.283 259.734 392.504 259.755 392.725 259.771 392.945 259.79 393.205 259.796 393.464 259.807 393.723 259.829 394.279 259.842 394.833 259.833 395.385 259.695 404.336 255.265 412.76 247.884 418.202 244.67 420.571 241.946 423.73 240.029 427.597 236.973 433.763 236.621 440.692 238.582 446.906L252.803 446.899C248.862 442.034 248.095 435.059 251.407 429.313 255.703 421.861 265.227 419.301 272.678 423.597 280.13 427.893 282.689 437.416 278.394 444.868 277.98 445.586 277.517 446.256 277.013 446.883L288.066 446.873C291.652 435.514 287.018 422.794 276.269 416.598 276.264 416.595 276.258 416.592 276.253 416.588 275.239 416.006 274.614 414.929 274.675 413.762L279.676 345.834 346.304 262.692C347.947 260.642 347.375 257.609 345.099 256.298ZM202.215 402.87C197.919 410.322 188.396 412.881 180.943 408.585 173.492 404.29 170.933 394.766 175.228 387.314 179.523 379.862 189.047 377.303 196.498 381.599 203.951 385.894 206.509 395.418 202.215 402.87Z" fill="#D1D1D1"/><path d="M345.444 250.372 345.444 250.372C343.916 249.492 341.985 249.761 340.756 251.026L298.051 294.998 268.502 325.419C268.129 325.802 268.221 326.434 268.687 326.696L273.949 329.652 345.54 252.321C345.54 252.321 345.758 250.637 345.561 250.44 345.528 250.407 345.444 250.372 345.444 250.372Z" fill="#505050"/><path d="M229.179 371.278C229.793 370.918 230.42 370.579 231.067 370.265 231.091 370.253 231.116 370.239 231.141 370.226 231.804 369.907 232.479 369.606 233.174 369.336L251.019 362.414C261.606 358.307 270.921 351.477 278.022 342.616L346.766 256.834C348.409 254.784 347.837 251.752 345.561 250.44L345.561 250.44 273.279 325.728 270.027 323.854 221.003 357.285C221.003 357.285 218.961 362.656 221.404 366.89 223.846 371.124 229.179 371.278 229.179 371.278Z" fill="#737373"/><path d="M210.965 404.721C213.35 401.124 214.719 397.184 215.159 393.216 216.18 383.995 221.352 375.855 229.178 371.278L221.003 357.285 205.573 367.808C204.594 368.445 203.348 368.443 202.337 367.858 202.331 367.855 202.325 367.852 202.32 367.849 189.9 360.689 174.028 364.954 166.869 377.375 159.397 390.337 164.369 407.059 178.068 413.713 189.657 419.341 203.847 415.458 210.965 404.721ZM181.58 403.83C174.128 399.535 171.569 390.011 175.864 382.559 180.16 375.107 189.684 372.548 197.135 376.844 204.587 381.139 207.146 390.663 202.851 398.114 198.555 405.566 189.032 408.125 181.58 403.83Z" fill="#FFC000"/><path d="M306.65 228.011 306.65 228.011C308.178 228.892 308.913 230.698 308.434 232.395L291.788 291.388 280.866 330.098C280.865 330.1 280.864 330.101 280.863 330.101L272.592 332.04 303.764 229.514C303.764 229.514 306.312 227.816 306.533 227.944 306.568 227.964 306.65 228.011 306.65 228.011Z" fill="#737373"/><path d="M280.099 340.51 280.865 330.101 277.613 328.227 306.532 227.943 304.127 226.557 304.127 226.557C303.116 225.974 301.823 226.43 301.401 227.518L298.38 235.301 260.622 332.587C256.513 343.173 255.272 354.656 257.025 365.876L259.966 384.703C260.054 385.262 260.119 385.825 260.172 386.388 260.195 386.622 260.216 386.855 260.233 387.088 260.25 387.344 260.259 387.599 260.269 387.855 260.294 388.414 260.304 388.971 260.295 389.527 260.295 389.527 261.953 394.248 268.304 394.248 274.655 394.248 276.485 389.588 276.485 389.588L280.099 340.51Z" fill="#D1D1D1"/><path d="M276.731 410.74C276.726 410.736 276.72 410.734 276.715 410.73 275.701 410.148 275.076 409.071 275.137 407.904L276.485 389.588 260.295 389.527C260.157 398.478 255.727 406.902 248.346 412.345 245.132 414.714 242.408 417.874 240.491 421.741 236.428 429.934 237.146 439.476 241.723 446.906L256.312 446.896C256.206 446.837 256.098 446.782 255.992 446.72 248.539 442.427 245.981 432.901 250.276 425.452 254.572 417.999 264.095 415.44 271.547 419.735 278.999 424.032 281.558 433.555 277.262 441.007 275.782 443.574 273.681 445.56 271.258 446.886L285.847 446.876C285.987 446.652 286.124 446.421 286.258 446.191 293.416 433.769 289.152 417.898 276.731 410.74Z" fill="#FFC000"/><path d="M274.505 337.271C274.505 340.035 272.265 342.275 269.501 342.275 266.738 342.275 264.498 340.035 264.498 337.271 264.498 334.508 266.738 332.268 269.501 332.268 272.265 332.268 274.505 334.508 274.505 337.271Z" fill="#505050"/><path d="M339.387 325.831C340.407 331.19 336.889 336.362 331.53 337.382 326.17 338.401 320.999 334.883 319.979 329.523 318.959 324.164 322.478 318.992 327.837 317.973 333.196 316.953 338.368 320.471 339.387 325.831Z" fill="#D1D1D1"/><path d="M336.66 317.45C332.802 313.593 326.548 313.593 322.69 317.45 318.833 321.308 318.833 327.562 322.69 331.42 326.548 335.277 332.802 335.277 336.66 331.42 340.517 327.562 340.517 321.308 336.66 317.45ZM328.13 328.129C327.537 328.722 326.574 328.722 325.981 328.129 325.388 327.536 325.388 326.573 325.981 325.98 326.574 325.386 327.537 325.386 328.13 325.98 328.724 326.573 328.724 327.536 328.13 328.129ZM333.369 322.89C332.775 323.484 331.813 323.484 331.219 322.89 330.626 322.297 330.626 321.335 331.219 320.741 331.813 320.148 332.775 320.148 333.369 320.741 333.962 321.335 333.962 322.297 333.369 322.89Z" fill="#505050"/><path d="M331.614 361.171C333.654 371.89 326.618 382.233 315.899 384.272 305.18 386.311 294.838 379.275 292.798 368.556 290.759 357.837 297.795 347.494 308.514 345.455 319.233 343.416 329.575 350.452 331.614 361.171Z" fill="#D1D1D1"/><path d="M312.199 341.864C301.289 341.864 292.444 350.709 292.444 361.62 292.444 372.531 301.289 381.376 312.199 381.376 323.11 381.376 331.955 372.531 331.955 361.62 331.955 350.709 323.11 341.864 312.199 341.864ZM305.222 365.005C303.544 365.005 302.183 363.645 302.183 361.966 302.183 360.287 303.544 358.927 305.222 358.927 306.901 358.927 308.262 360.287 308.262 361.966 308.262 363.645 306.901 365.005 305.222 365.005ZM319.607 364.659C317.929 364.659 316.568 363.298 316.568 361.62 316.568 359.941 317.929 358.581 319.607 358.581 321.286 358.581 322.647 359.941 322.647 361.62 322.647 363.298 321.286 364.659 319.607 364.659Z" fill="#2F2F2F"/><path d="M239.256 218.819C239.256 229.73 230.411 238.575 219.5 238.575 208.59 238.575 199.745 229.73 199.745 218.819 199.745 207.908 208.59 199.064 219.5 199.064 230.411 199.064 239.256 207.908 239.256 218.819Z" fill="#D1D1D1"/><path d="M233.469 201.811C225.755 194.096 213.246 194.096 205.531 201.811 197.816 209.525 197.816 222.034 205.531 229.749 213.246 237.464 225.754 237.464 233.469 229.749 241.185 222.034 241.185 209.525 233.469 201.811ZM216.411 223.167C215.224 224.354 213.3 224.354 212.113 223.167 210.926 221.98 210.926 220.056 212.113 218.869 213.3 217.682 215.224 217.682 216.411 218.869 217.598 220.056 217.598 221.98 216.411 223.167ZM226.888 212.69C225.701 213.877 223.777 213.877 222.59 212.69 221.403 211.503 221.403 209.579 222.59 208.392 223.777 207.205 225.701 207.205 226.888 208.392 228.075 209.579 228.075 211.503 226.888 212.69Z" fill="#505050"/><path d="M208.103 254.531C208.103 259.986 203.68 264.409 198.225 264.409 192.77 264.409 188.347 259.986 188.347 254.531 188.347 249.075 192.77 244.653 198.225 244.653 203.68 244.653 208.103 249.075 208.103 254.531Z" fill="#D1D1D1"/><path d="M205.21 244.507C201.352 240.65 195.098 240.65 191.241 244.507 187.383 248.365 187.383 254.619 191.241 258.476 195.098 262.334 201.352 262.334 205.21 258.476 209.067 254.619 209.067 248.365 205.21 244.507ZM196.68 255.185C196.087 255.779 195.125 255.779 194.531 255.185 193.938 254.592 193.938 253.63 194.531 253.036 195.125 252.443 196.087 252.443 196.68 253.036 197.274 253.63 197.274 254.592 196.68 255.185ZM196.68 249.947C196.087 250.54 195.125 250.54 194.531 249.947 193.938 249.354 193.938 248.391 194.531 247.798 195.125 247.204 196.087 247.204 196.68 247.798 197.274 248.391 197.274 249.354 196.68 249.947ZM201.919 255.185C201.326 255.779 200.363 255.779 199.77 255.185 199.176 254.592 199.176 253.63 199.77 253.036 200.363 252.443 201.326 252.443 201.919 253.036 202.513 253.63 202.513 254.592 201.919 255.185ZM201.919 249.947C201.326 250.54 200.363 250.54 199.77 249.947 199.176 249.354 199.176 248.391 199.77 247.798 200.363 247.204 201.326 247.204 201.919 247.798 202.513 248.391 202.513 249.354 201.919 249.947Z" fill="#2F2F2F"/><path d="M263.57 221.099C263.57 226.554 259.148 230.976 253.693 230.976 248.237 230.976 243.815 226.554 243.815 221.099 243.815 215.643 248.237 211.221 253.693 211.221 259.148 211.221 263.57 215.643 263.57 221.099Z" fill="#D1D1D1"/><path d="M260.677 211.075C256.82 207.217 250.565 207.217 246.708 211.075 242.851 214.932 242.851 221.186 246.708 225.044 250.565 228.901 256.82 228.901 260.677 225.044 264.535 221.186 264.535 214.932 260.677 211.075ZM249.893 219.579C249.054 219.579 248.374 218.899 248.374 218.059 248.374 217.22 249.054 216.54 249.893 216.54 250.733 216.54 251.413 217.22 251.413 218.059 251.413 218.898 250.733 219.579 249.893 219.579ZM257.397 219.579C256.557 219.579 255.877 218.899 255.877 218.059 255.877 217.22 256.557 216.54 257.397 216.54 258.236 216.54 258.916 217.22 258.916 218.059 258.916 218.898 258.236 219.579 257.397 219.579Z" fill="#2F2F2F"/><path d="M255.212 274.287C255.212 285.197 246.367 294.042 235.457 294.042 224.546 294.042 215.701 285.197 215.701 274.287 215.701 263.376 224.546 254.531 235.457 254.531 246.367 254.531 255.212 263.376 255.212 274.287Z" fill="#D1D1D1"/><path d="M235.457 251.492C224.546 251.492 215.701 260.337 215.701 271.247 215.701 282.158 224.546 291.003 235.457 291.003 246.367 291.003 255.212 282.158 255.212 271.247 255.212 260.337 246.367 251.492 235.457 251.492ZM228.048 274.287C226.37 274.287 225.009 272.926 225.009 271.247 225.009 269.569 226.37 268.208 228.048 268.208 229.727 268.208 231.088 269.569 231.088 271.247 231.088 272.926 229.727 274.287 228.048 274.287ZM242.865 274.287C241.187 274.287 239.826 272.926 239.826 271.247 239.826 269.569 241.186 268.208 242.865 268.208 244.543 268.208 245.904 269.569 245.904 271.247 245.904 272.925 244.544 274.287 242.865 274.287Z" fill="#505050"/><path d="M334.994 180.828C334.994 191.738 326.149 200.583 315.238 200.583 304.328 200.583 295.483 191.738 295.483 180.828 295.483 169.917 304.328 161.072 315.238 161.072 326.149 161.072 334.994 169.917 334.994 180.828Z" fill="#D1D1D1"/><path d="M315.238 158.033C304.328 158.033 295.483 166.878 295.483 177.788 295.483 188.699 304.328 197.544 315.238 197.544 326.149 197.544 334.994 188.699 334.994 177.788 334.994 166.878 326.149 158.033 315.238 158.033ZM307.83 180.828C306.151 180.828 304.791 179.467 304.791 177.788 304.791 176.11 306.151 174.749 307.83 174.749 309.509 174.749 310.87 176.11 310.87 177.788 310.87 179.467 309.509 180.828 307.83 180.828ZM315.238 188.236C313.56 188.236 312.199 186.875 312.199 185.197 312.199 183.518 313.56 182.157 315.238 182.157 316.917 182.157 318.278 183.518 318.278 185.197 318.278 186.875 316.917 188.236 315.238 188.236ZM315.238 173.42C313.56 173.42 312.199 172.059 312.199 170.38 312.199 168.702 313.56 167.341 315.238 167.341 316.917 167.341 318.278 168.702 318.278 170.38 318.278 172.058 316.917 173.42 315.238 173.42ZM322.647 180.828C320.969 180.828 319.607 179.467 319.607 177.788 319.607 176.11 320.968 174.749 322.647 174.749 324.325 174.749 325.686 176.11 325.686 177.788 325.686 179.467 324.325 180.828 322.647 180.828Z" fill="#FFFFFF"/><path d="M612.384 133.301C612.384 151.996 597.229 167.151 578.534 167.151 559.839 167.151 544.684 151.996 544.684 133.301 544.684 114.606 559.839 99.4502 578.534 99.4502 597.229 99.4502 612.384 114.606 612.384 133.301Z" fill="#D1D1D1"/><path d="M544.737 119.802C544.737 138.484 559.882 153.628 578.563 153.628 597.244 153.628 612.389 138.484 612.389 119.802 612.389 110.558 608.681 102.182 602.672 96.0764L554.429 96.1079C548.436 102.211 544.737 110.574 544.737 119.802Z" fill="#505050"/><path d="M580.042 117.484 567.341 130.589C567.048 130.89 566.568 130.898 566.265 130.606 565.963 130.314 565.956 129.834 566.249 129.533 566.252 129.528 566.262 129.521 566.265 129.516L579.369 116.813C579.558 116.63 579.86 116.635 580.042 116.823 580.221 117.008 580.221 117.301 580.042 117.484Z" fill="#737373"/><path d="M569.826 131.571C569.826 134.087 567.787 136.127 565.271 136.127 562.755 136.127 560.715 134.087 560.715 131.571 560.715 129.055 562.755 127.016 565.271 127.016 567.787 127.016 569.826 129.055 569.826 131.571Z" fill="#FFC000"/><path d="M560.1 115.018 532.247 115.302C531.828 115.306 531.484 114.97 531.48 114.55 531.474 114.131 531.812 113.788 532.231 113.783 532.234 113.783 532.244 113.783 532.247 113.783L560.1 114.067C560.363 114.07 560.574 114.285 560.571 114.547 560.568 114.807 560.36 115.015 560.1 115.018Z" fill="#737373"/><path d="M538.383 114.512C538.383 117.028 536.343 119.068 533.827 119.068 531.311 119.068 529.271 117.028 529.271 114.512 529.271 111.996 531.311 109.956 533.827 109.956 536.343 109.956 538.383 111.996 538.383 114.512Z" fill="#FFFFFF"/><path d="M621.005 154.02 587.969 121.787C587.598 121.429 587.01 121.426 586.64 121.787 586.266 122.154 586.256 122.756 586.623 123.132L618.857 156.168C618.863 156.175 618.876 156.187 618.883 156.194 619.484 156.78 620.446 156.768 621.031 156.168 621.616 155.568 621.603 154.606 621.005 154.02ZM619.591 154.758C619.442 154.906 619.25 154.98 619.055 154.98 618.86 154.98 618.665 154.906 618.519 154.758L609.435 145.676C609.139 145.379 609.139 144.898 609.435 144.602 609.731 144.305 610.212 144.305 610.511 144.602L619.591 153.684C619.887 153.981 619.887 154.462 619.591 154.758Z" fill="#737373"/><path d="M171.99 127.255C171.09 130.69 169.68 132.518 173.435 134.791 174.161 135.38 174.869 136.116 174.898 137.094L174.898 137.094C174.954 137.821 174.793 138.642 174.664 139.449 173.227 144.41 180.496 143.137 179.761 147.968 178.876 153.595 185.742 150.989 186.268 155.585 187.413 163.259 192.458 155.783 195.224 164.53L195.224 164.53C195.469 164.862 195.76 165.168 196.141 165.333L196.141 165.333C197.495 165.964 199.534 165.221 201.089 165.604 204.974 167.751 203.313 171.667 209.572 169.436L209.572 169.436C210.795 169.124 211.904 169.695 212.71 170.593 216.486 176.135 219.201 168.954 223.201 172.347L223.201 172.347C228.176 176.84 228.984 168.714 234.322 172.299 237.4 174.353 238.824 170.494 241.22 169.449 242.79 169.057 244.493 170.142 246.1 170.091 248.592 170.026 248.829 166.398 251.039 165.641 252.763 165.119 255.102 166.165 256.495 165.111 257.985 164.015 257.917 160.985 259.841 160.131 266.902 158.965 264.357 159.067 266.857 153.559 268.007 152.286 270.861 152.405 271.923 151.015 273.005 149.469 272.043 147.054 272.992 145.448 274.249 143.59 278.031 143.441 277.744 140.688 275.417 133.093 283.284 135.296 280.889 129.411 280.135 127.819 279.978 125.988 281.383 124.704L281.383 124.704C282.167 123.777 283.097 122.865 283.248 121.841 283.473 119.514 280.377 117.753 281.474 115.36L281.474 115.36C282.015 113.842 283.741 112.338 283.132 110.586L283.132 110.586C282.861 109.849 282.239 109.162 281.641 108.475L281.641 108.475C280.452 107.347 279.882 105.773 280.618 104.225 282.953 99.6394 279.539 99.5678 277.529 96.5297 277.502 96.4511 277.483 96.3702 277.464 96.2889L174.781 96.3556C174.22 98.1284 171.798 98.8132 171.045 100.455 170.29 102.432 172.282 104.314 171.964 106.31 171.555 108.259 168.959 109.355 169.004 111.483 169.099 112.725 170.251 114.026 170.776 115.306 171.546 116.865 170.367 118.357 169.631 119.675 167.282 122.737 172.035 124.331 171.99 127.255Z" fill="#CFCFCF"/><path d="M290.102 96.2805 286.718 96.2828C286.519 96.5561 286.322 96.8369 286.127 97.1287 283.543 101.005 283.029 105.579 284.601 110.724 288.054 122.027 300.385 132.35 301.642 132.866 301.806 132.934 301.976 132.965 302.142 132.965 302.66 132.965 303.151 132.658 303.36 132.149 303.627 131.499 303.337 130.76 302.712 130.461 301.581 129.771 289.268 119.418 286.77 108.658 285.885 104.845 286.406 101.457 288.318 98.589 288.889 97.7322 289.483 96.9714 290.102 96.2805Z" fill="#CFCFCF"/><path d="M283.986 96.2844C283.481 98.8785 283.681 101.692 284.601 104.702 288.054 116.006 300.385 126.328 301.642 126.845 301.806 126.912 301.975 126.944 302.142 126.944 302.66 126.944 303.151 126.636 303.36 126.127 303.627 125.478 303.337 124.739 302.711 124.439 301.58 123.749 289.267 113.397 286.77 102.637 286.241 100.36 286.218 98.236 286.689 96.2824L283.986 96.2844Z" fill="#737373"/><path d="M172.581 96.3572C171.527 97.0888 170.374 97.7986 170.175 98.7557 169.83 100.421 172.515 102.586 172.321 104.303 172.132 105.989 169.031 107.501 168.995 109.232 168.959 110.963 171.995 112.603 172.115 114.297 172.237 116.021 169.465 118.072 169.741 119.751 170.021 121.453 173.305 122.508 173.736 124.156 174.173 125.823 171.827 128.351 172.411 129.954 172.999 131.571 176.423 132 177.153 133.544 177.889 135.098 176.051 138.016 176.922 139.487 177.797 140.964 181.241 140.756 182.244 142.142 183.25 143.531 181.979 146.737 183.106 148.027 184.236 149.317 187.582 148.482 188.825 149.663 190.066 150.844 189.401 154.229 190.748 155.291 192.09 156.352 195.229 154.919 196.668 155.855 198.102 156.786 198.07 160.236 199.591 161.035 201.103 161.829 203.923 159.844 205.514 160.499 207.092 161.148 207.696 164.544 209.344 165.049 210.972 165.549 213.376 163.076 215.066 163.426 216.731 163.772 217.953 166.998 219.67 167.191 221.357 167.38 223.266 164.509 224.997 164.545 226.728 164.581 228.517 167.53 230.211 167.41 231.935 167.287 233.289 164.115 234.968 163.839 236.67 163.558 238.97 166.128 240.618 165.698 242.284 165.261 243.03 161.892 244.632 161.309 246.249 160.72 248.985 162.821 250.528 162.09 252.082 161.355 252.192 157.906 253.663 157.035 255.14 156.16 258.216 157.721 259.602 156.717 260.991 155.711 260.468 152.301 261.756 151.174 263.047 150.045 266.357 151.018 267.537 149.775 268.718 148.533 267.58 145.277 268.643 143.931 269.703 142.588 273.134 142.938 274.07 141.498 275.001 140.065 273.286 137.073 274.085 135.551 274.879 134.039 278.317 133.752 278.972 132.161 279.621 130.584 277.383 127.96 277.888 126.313 278.387 124.685 281.713 123.767 282.063 122.078 282.408 120.412 279.724 118.248 279.917 116.531 280.107 114.843 283.207 113.331 283.244 111.6 283.28 109.869 280.243 108.229 280.124 106.536 280.002 104.812 282.774 102.76 282.498 101.082 282.218 99.3793 278.933 98.3247 278.502 96.6767 278.47 96.5525 278.457 96.4222 278.453 96.2889L172.581 96.3572Z" fill="#505050"/><path d="M170.23 118.036C170.227 118.035 170.225 118.036 170.223 118.039 169.88 118.632 169.651 119.211 169.74 119.75 169.872 120.549 170.665 121.205 171.515 121.847 171.516 121.848 171.516 121.849 171.518 121.849 185.251 124.315 197.994 130.381 208.622 139.56 208.947 138.3 209.299 137.05 209.68 135.81 203.539 130.716 196.757 126.594 189.52 123.524 185.86 122.531 182.297 121.303 178.853 119.851 176.025 119.093 173.147 118.489 170.23 118.036Z" fill="#737373"/><path d="M173.668 125.422C173.664 125.422 173.661 125.424 173.66 125.427 173.362 126.507 172.632 127.721 172.396 128.776 172.395 128.78 172.398 128.783 172.401 128.784 185.379 131.51 197.313 137.783 207.042 147.095 207.267 145.71 207.526 144.334 207.818 142.969 198.061 134.175 186.347 128.182 173.668 125.422Z" fill="#737373"/><path d="M176.834 133.092C176.965 133.232 177.076 133.382 177.154 133.544 177.55 134.383 177.199 135.617 176.927 136.809 176.926 136.812 176.928 136.815 176.931 136.816 187.3 140.041 196.745 145.849 204.471 153.902 205.024 154.478 205.56 155.065 206.089 155.657 206.186 154.066 206.323 152.484 206.506 150.912 198.169 142.405 187.993 136.334 176.84 133.081 176.828 133.077 176.826 133.082 176.834 133.092Z" fill="#737373"/><path d="M202.247 156.042C196.453 150.003 189.63 145.288 182.176 142.056 182.163 142.051 182.16 142.055 182.168 142.066 182.214 142.125 182.323 142.271 182.353 142.328 182.857 143.268 182.582 144.831 182.599 146.158 182.599 146.16 182.601 146.162 182.603 146.164 188.91 149.166 194.706 153.306 199.687 158.498 200.463 159.306 201.205 160.138 201.929 160.982 201.93 160.984 201.932 160.984 201.935 160.984 203.211 160.645 204.581 160.11 205.522 160.498 205.664 160.556 205.797 160.644 205.925 160.743 205.929 160.746 205.935 160.743 205.935 160.738 205.936 160.577 205.938 160.414 205.939 160.252 204.777 158.804 203.548 157.397 202.247 156.042Z" fill="#737373"/><path d="M191.982 155.693C191.989 155.693 191.992 155.685 191.987 155.681 191.367 155.184 190.728 154.7 190.089 154.233 190.084 154.23 190.077 154.235 190.079 154.241 190.222 154.677 190.43 155.053 190.74 155.297 191.065 155.553 191.496 155.662 191.982 155.693Z" fill="#737373"/><path d="M209.031 159.22C209.013 160.072 209.013 160.92 209.021 161.767 209.031 162.703 209.058 163.636 209.099 164.565 209.104 164.692 209.108 164.82 209.115 164.948 209.115 164.95 209.116 164.952 209.118 164.953 209.194 164.998 209.345 165.054 209.422 165.072 209.922 165.19 210.494 165.05 211.089 164.806 211.543 164.621 212.548 164.109 212.625 164.071 212.627 164.069 212.628 164.067 212.628 164.065 212.565 162.484 212.544 160.894 212.577 159.292 212.586 158.875 212.603 158.459 212.618 158.043 212.647 157.249 212.685 156.457 212.737 155.668 212.787 154.915 212.845 154.164 212.916 153.415 213.067 151.826 213.27 150.247 213.514 148.68 213.615 148.033 213.724 147.387 213.841 146.745 213.955 146.118 214.076 145.495 214.204 144.873 214.489 143.498 214.809 142.135 215.166 140.783 215.316 140.215 215.472 139.65 215.634 139.087 215.795 138.529 215.962 137.973 216.135 137.419 217.361 133.5 218.888 129.691 220.714 126.023 219.357 126.165 217.991 126.276 216.616 126.353 215.338 129.099 214.218 131.916 213.254 134.793 213.075 135.327 212.902 135.863 212.735 136.401 212.566 136.939 212.403 137.48 212.246 138.023 211.875 139.308 211.534 140.603 211.226 141.909 211.087 142.495 210.954 143.083 210.828 143.674 210.7 144.271 210.579 144.871 210.464 145.472 210.191 146.917 209.957 148.374 209.759 149.839 209.669 150.507 209.588 151.177 209.514 151.849 209.438 152.544 209.371 153.242 209.312 153.942 209.166 155.681 209.068 157.431 209.031 159.191 209.031 159.201 209.031 159.21 209.031 159.22Z" fill="#737373"/><path d="M215.668 159.356C215.666 159.464 215.668 159.572 215.666 159.68 215.65 160.624 215.654 161.564 215.673 162.5 215.681 162.9 215.691 163.301 215.706 163.7 215.706 163.702 215.707 163.704 215.709 163.705 216.317 164.098 216.878 164.804 217.445 165.482 218.082 166.241 218.729 166.963 219.462 167.152 219.467 167.153 219.471 167.15 219.47 167.144 219.432 166.703 219.4 166.253 219.37 165.81 219.293 164.67 219.243 163.523 219.219 162.369 219.2 161.393 219.195 160.414 219.215 159.43 219.238 158.3 219.29 157.174 219.365 156.054 219.418 155.263 219.485 154.475 219.564 153.689 219.639 152.938 219.727 152.19 219.825 151.444 220.033 149.857 220.291 148.283 220.603 146.723 220.73 146.087 220.867 145.452 221.011 144.82 221.152 144.201 221.302 143.585 221.459 142.97 223.103 136.559 225.624 130.434 228.959 124.741 227.467 125.049 225.96 125.315 224.441 125.542 222.008 130.105 220.06 134.907 218.621 139.887 218.454 140.464 218.294 141.043 218.141 141.624 217.986 142.218 217.836 142.813 217.695 143.409 217.356 144.837 217.059 146.277 216.804 147.73 216.687 148.397 216.578 149.066 216.478 149.736 216.375 150.432 216.279 151.128 216.195 151.828 215.986 153.569 215.841 155.325 215.752 157.092 215.714 157.845 215.684 158.6 215.668 159.356Z" fill="#737373"/><path d="M276.698 96.2893C276.311 96.7468 275.921 97.2022 275.524 97.6516 276.545 97.405 277.574 97.1833 278.609 96.9861 278.613 96.9854 278.615 96.9809 278.613 96.977 278.566 96.8788 278.528 96.779 278.501 96.6763 278.468 96.5515 278.452 96.4219 278.448 96.2879L276.698 96.2893Z" fill="#737373"/><path d="M222.304 159.495C222.296 159.865 222.297 160.234 222.295 160.603 222.286 162.35 222.343 164.083 222.465 165.799 222.466 165.805 222.47 165.807 222.475 165.803 223.161 165.281 223.849 164.779 224.516 164.61 224.677 164.568 224.837 164.541 224.995 164.544 225.31 164.551 225.627 164.655 225.944 164.818 225.95 164.821 225.954 164.818 225.954 164.812 225.938 164.538 225.925 164.264 225.913 163.989 225.86 162.852 225.837 161.708 225.843 160.556 225.845 160.227 225.844 159.899 225.851 159.567 225.888 157.791 225.999 156.028 226.175 154.279 226.255 153.495 226.348 152.713 226.455 151.935 226.557 151.189 226.67 150.445 226.799 149.706 228.532 139.672 232.577 130.272 238.64 122.134 236.85 122.732 235.036 123.275 233.196 123.755 228.816 130.533 225.68 138.015 223.928 145.919 223.781 146.578 223.646 147.242 223.519 147.907 223.389 148.591 223.271 149.277 223.161 149.966 222.887 151.693 222.676 153.438 222.531 155.196 222.461 156.057 222.401 156.921 222.362 157.788 222.336 158.356 222.316 158.924 222.304 159.495Z" fill="#737373"/><path d="M281.769 103.186C281.771 103.186 281.772 103.185 281.773 103.183 282.244 102.454 282.605 101.739 282.497 101.08 282.409 100.544 282.021 100.072 281.519 99.6244 281.517 99.6231 281.516 99.6231 281.514 99.6231 278.043 100.149 274.644 100.967 271.345 102.062 268.254 105.101 264.937 107.906 261.417 110.447 267.672 106.774 274.555 104.317 281.769 103.186Z" fill="#737373"/><path d="M228.942 159.632C228.889 162.186 228.995 164.707 229.246 167.187 229.246 167.189 229.248 167.191 229.25 167.192 229.572 167.346 229.893 167.431 230.21 167.409 231.019 167.351 231.745 166.623 232.463 165.838 232.529 165.764 232.596 165.692 232.662 165.619 232.663 165.617 232.664 165.616 232.664 165.614 232.576 164.518 232.522 163.415 232.496 162.304 232.476 161.441 232.471 160.575 232.489 159.705 232.494 159.442 232.515 159.182 232.524 158.919 233.044 143.573 239.421 129.332 250.464 118.738 252.24 117.036 254.112 115.47 256.055 114.02 252.333 116.3 248.423 118.296 244.359 119.99 236.043 129.42 230.845 141.022 229.366 153.515 229.266 154.371 229.184 155.233 229.118 156.096 229.048 157.017 228.998 157.942 228.968 158.871 228.959 159.125 228.947 159.378 228.942 159.632Z" fill="#737373"/><path d="M235.58 159.769C235.552 161.141 235.576 162.503 235.647 163.853 235.647 163.856 235.649 163.858 235.652 163.859 236.807 164.083 238.133 165.133 239.322 165.561 239.327 165.563 239.331 165.559 239.331 165.555 239.163 163.676 239.088 161.771 239.127 159.842 239.415 145.958 245.118 133.069 255.062 123.529 262.674 116.228 272.147 111.504 282.397 109.814 282.402 109.813 282.404 109.807 282.401 109.803 281.528 108.74 280.278 107.692 280.139 106.624 280.138 106.621 280.135 106.618 280.131 106.619 269.836 108.646 260.329 113.559 252.602 120.973 241.957 131.184 235.886 144.959 235.58 159.769Z" fill="#737373"/><path d="M257.197 125.764C247.839 134.742 242.487 146.863 242.217 159.907 242.188 161.305 242.231 162.688 242.319 164.06 242.32 164.071 242.326 164.072 242.332 164.063 243.043 162.956 243.689 161.651 244.632 161.308 244.967 161.186 245.351 161.183 245.762 161.243 245.766 161.244 245.769 161.241 245.769 161.237 245.766 160.818 245.755 160.401 245.764 159.98 246.015 147.86 251.002 136.623 259.658 128.32 265.4 122.812 272.367 118.974 279.943 117.086 279.947 117.086 279.949 117.082 279.948 117.079 279.913 116.892 279.896 116.708 279.916 116.53 280.057 115.278 281.797 114.123 282.702 112.904 282.708 112.896 282.705 112.891 282.695 112.893 273.14 114.511 264.309 118.94 257.197 125.764Z" fill="#737373"/><path d="M261.794 130.554C253.722 138.298 249.088 148.765 248.854 160.044 248.84 160.74 248.844 161.432 248.864 162.121 248.864 162.124 248.866 162.127 248.869 162.127 249.488 162.271 250.063 162.31 250.529 162.089 251.516 161.622 251.921 160.059 252.463 158.758 252.463 158.757 252.463 158.757 252.463 158.756 253.008 148.923 257.212 139.867 264.255 133.111 268.919 128.638 274.54 125.457 280.663 123.772 280.663 123.771 280.664 123.771 280.665 123.77 281.351 123.264 281.928 122.728 282.063 122.077 282.2 121.417 281.857 120.676 281.409 119.917 281.408 119.915 281.405 119.913 281.402 119.914 274.072 121.605 267.327 125.245 261.794 130.554Z" fill="#737373"/><path d="M277.987 127.904C273.712 129.581 269.778 132.094 266.389 135.345 260.416 141.076 256.67 148.591 255.723 156.797 255.723 156.8 255.725 156.804 255.729 156.804 256.983 156.936 258.369 157.269 259.284 156.889 259.286 156.888 259.287 156.886 259.287 156.884 260.204 149.601 263.575 142.961 268.851 137.901 271.836 135.038 275.301 132.807 279.072 131.296 279.074 131.295 279.076 131.292 279.076 131.289 278.989 130.263 278.325 129.027 277.996 127.909 277.994 127.906 277.991 127.904 277.987 127.904Z" fill="#737373"/><path d="M270.986 140.136C267.907 143.089 265.551 146.633 264.044 150.54 264.042 150.544 264.046 150.549 264.051 150.549 265.384 150.469 266.835 150.511 267.537 149.774 268.717 148.533 267.579 145.277 268.642 143.93 269.702 142.586 273.134 142.937 274.07 141.497 274.661 140.587 274.186 139.048 273.964 137.656 273.964 137.651 273.958 137.649 273.954 137.652 272.918 138.411 271.924 139.236 270.986 140.136Z" fill="#737373"/><path d="M267.729 96.2951C267.162 96.8743 266.589 97.4482 266.004 98.0098 263.436 100.473 260.699 102.759 257.819 104.857 256.01 106.174 254.145 107.417 252.225 108.579 248.488 110.84 244.55 112.798 240.446 114.417 239.434 114.818 238.411 115.197 237.378 115.555 236.474 115.869 235.562 116.163 234.644 116.444 232.829 116.999 230.986 117.49 229.118 117.913 228.401 118.076 227.68 118.228 226.956 118.371 226.253 118.509 225.548 118.638 224.839 118.757 223.332 119.011 221.813 119.226 220.28 119.392 219.659 119.459 219.036 119.518 218.412 119.57 217.789 119.622 217.165 119.666 216.538 119.704 214.431 119.831 212.303 119.876 210.156 119.831 195.305 119.523 181.488 115.082 169.785 107.624 169.782 107.622 169.778 107.623 169.776 107.625 169.333 108.147 169.006 108.678 168.995 109.232 168.971 110.406 170.358 111.539 171.292 112.674 171.293 112.675 171.293 112.675 171.294 112.676 174.051 114.25 176.91 115.665 179.856 116.916 183.301 118.379 186.867 119.61 190.536 120.596 196.785 122.275 203.331 123.238 210.083 123.378 210.66 123.39 211.231 123.396 211.805 123.396 212.752 123.396 213.694 123.374 214.633 123.342 215.232 123.321 215.83 123.296 216.426 123.262 217.019 123.229 217.611 123.192 218.201 123.145 219.636 123.034 221.059 122.883 222.473 122.698 223.131 122.612 223.787 122.518 224.441 122.416 225.1 122.313 225.756 122.203 226.41 122.085 228.051 121.787 229.674 121.439 231.28 121.045 232.051 120.855 232.819 120.657 233.582 120.447 234.395 120.222 235.203 119.985 236.006 119.735 238.219 119.048 240.391 118.267 242.521 117.401 243.755 116.899 244.974 116.369 246.177 115.809 247.955 114.983 249.698 114.095 251.406 113.147 255.247 111.014 258.9 108.582 262.335 105.88 263.857 104.682 265.336 103.432 266.77 102.132 267.762 101.232 268.732 100.308 269.679 99.3608 270.677 98.3631 271.647 97.338 272.594 96.2912L267.729 96.2951Z" fill="#737373"/><path d="M257.981 96.3013C256.753 97.3354 255.492 98.3303 254.198 99.2825 252.368 100.629 250.472 101.891 248.517 103.062 244.765 105.31 240.798 107.226 236.651 108.764 235.631 109.143 234.6 109.496 233.559 109.828 232.65 110.12 231.731 110.39 230.805 110.645 228.981 111.148 227.128 111.58 225.25 111.939 224.526 112.077 223.8 112.207 223.069 112.323 222.364 112.436 221.654 112.535 220.942 112.627 217.46 113.073 213.904 113.269 210.293 113.193 195.433 112.886 181.7 108.056 170.386 100.032 170.375 100.024 170.371 100.028 170.376 100.039 170.964 101.443 172.467 103 172.321 104.302 172.283 104.639 172.125 104.968 171.903 105.295 171.901 105.298 171.902 105.302 171.905 105.304 183.047 112.291 196.149 116.45 210.22 116.741 210.749 116.752 211.275 116.757 211.801 116.757 214.037 116.757 216.25 116.654 218.439 116.461 219.097 116.403 219.752 116.337 220.406 116.262 221.069 116.185 221.73 116.102 222.389 116.008 224.043 115.773 225.68 115.484 227.3 115.143 228.08 114.979 228.856 114.803 229.628 114.615 230.448 114.414 231.262 114.202 232.072 113.975 234.311 113.347 236.509 112.62 238.661 111.794 239.91 111.315 241.141 110.8 242.357 110.257 244.167 109.449 245.938 108.571 247.67 107.628 251.581 105.497 255.286 103.032 258.743 100.265 260.259 99.0514 261.726 97.7794 263.143 96.4537 263.198 96.402 263.254 96.3497 263.309 96.2983L257.981 96.3013Z" fill="#737373"/><path d="M246.811 96.3087C246.151 96.7319 245.486 97.1476 244.81 97.547 241.082 99.7521 237.122 101.596 232.976 103.028 231.956 103.38 230.924 103.709 229.882 104.011 228.973 104.275 228.054 104.517 227.128 104.742 221.779 106.04 216.183 106.676 210.432 106.555 198.065 106.299 186.554 102.591 176.805 96.3542L172.577 96.3568C172.241 96.5915 171.894 96.8235 171.571 97.0621 171.567 97.0647 171.567 97.0699 171.571 97.0725 182.508 105.008 195.871 109.801 210.357 110.102 210.84 110.112 211.319 110.116 211.8 110.116 215.787 110.116 219.701 109.773 223.51 109.113 224.295 108.977 225.075 108.824 225.851 108.662 226.673 108.489 227.491 108.305 228.303 108.104 230.557 107.544 232.769 106.872 234.932 106.094 236.19 105.642 237.429 105.152 238.652 104.63 240.461 103.856 242.233 103.009 243.96 102.088 247.133 100.396 250.156 98.457 253.011 96.3042L246.811 96.3087Z" fill="#737373"/><path d="M232.015 96.3185C225.333 98.7934 218.096 100.077 210.568 99.9192 203.915 99.7817 197.536 98.5311 191.606 96.3448L182.938 96.3503C191.196 100.71 200.554 103.261 210.495 103.467 210.931 103.476 211.365 103.48 211.799 103.48 218.605 103.48 225.17 102.371 231.32 100.323 232.571 99.9065 233.805 99.4502 235.021 98.9568 236.817 98.2275 238.573 97.4154 240.283 96.5262 240.416 96.4569 240.547 96.3832 240.68 96.313L232.015 96.3185Z" fill="#737373"/><path d="M213.167 126.469C212.268 128.498 211.448 130.563 210.712 132.66 207.561 130.12 204.255 127.82 200.812 125.776 203.834 126.167 206.904 126.403 210.018 126.468 211.073 126.49 212.122 126.486 213.167 126.469Z" fill="#737373"/></g></svg>