<?xml version="1.0" encoding="UTF-8"?>
<svg version="1.1" xmlns="http://www.w3.org/2000/svg" width="500" height="500">
<path d="M0 0 C1.63795882 1.54890999 3.26218466 3.11242605 4.875 4.6875 C5.88657948 5.64858411 6.89830546 6.60951404 7.91015625 7.5703125 C14.04813083 13.47330882 19.34392487 19.42841323 23.875 26.6875 C24.63876953 27.88632813 24.63876953 27.88632813 25.41796875 29.109375 C42.72321546 57.04689411 50.7460698 90.21049492 43.64160156 122.68261719 C35.36667121 157.59467478 14.33094097 188.2959826 -16.32421875 207.36328125 C-45.28164696 224.58068751 -80.28854238 229.85778865 -113.125 221.6875 C-130.56679028 216.9993037 -145.94709284 209.98551977 -160.125 198.6875 C-160.64835937 198.27097168 -161.17171875 197.85444336 -161.7109375 197.42529297 C-184.74713541 178.93820339 -204.11955522 150.59653549 -208.125 120.6875 C-208.89209532 112.98910603 -209.40466075 105.27051623 -209.87548828 97.54907227 C-210.08371532 94.63092577 -210.08371532 94.63092577 -210.70385742 91.56494141 C-211.17783892 88.32647998 -210.59495634 85.8964303 -209.70849609 82.77197266 C-209.13834975 80.73519044 -208.70221635 78.71271171 -208.30078125 76.63671875 C-203.44771873 52.33158031 -193.89558359 31.04413878 -177.125 12.6875 C-175.95687471 11.27203581 -174.79000906 9.85553013 -173.625 8.4375 C-154.56733902 -13.04731592 -125.28495967 -26.14723321 -97.125 -29.3125 C-96.18914062 -29.43496094 -95.25328125 -29.55742188 -94.2890625 -29.68359375 C-60.97596898 -33.3799781 -25.15895833 -22.1943677 0 0 Z " fill="#FAF8F9" transform="translate(333.125,152.3125)"/>
<path d="M0 0 C0.66 0 1.32 0 2 0 C7.2924389 31.19526991 -1.80374393 63.19473739 -19.02734375 89.28515625 C-39.21858877 117.07310731 -67.41540196 137.66047374 -101.625 143.9375 C-134.91956688 149.16451811 -169.92802782 142.68680513 -197.625 123.1875 C-199.43289301 121.81274802 -201.22377417 120.41542995 -203 119 C-203.52335937 118.58347168 -204.04671875 118.16694336 -204.5859375 117.73779297 C-227.68259395 99.202184 -246.8900845 70.94275414 -251 41 C-253.68559264 16.39981363 -253.68559264 16.39981363 -252 11 C-250.82530556 13.34938888 -250.79965111 14.95073205 -250.68359375 17.5703125 C-250.64169922 18.46621094 -250.59980469 19.36210937 -250.55664062 20.28515625 C-250.51732422 21.22230469 -250.47800781 22.15945312 -250.4375 23.125 C-250.39431641 24.06988281 -250.35113281 25.01476562 -250.30664062 25.98828125 C-250.20040928 28.32537092 -250.09836824 30.6625683 -250 33 C-248.91589844 32.96519531 -247.83179688 32.93039062 -246.71484375 32.89453125 C-241.54495845 33.04131033 -238.35918949 35.3888462 -234.23828125 38.203125 C-204.39022104 57.97668271 -162.40154274 58.23858343 -128.0625 58.3125 C-126.19507141 58.31742462 -126.19507141 58.31742462 -124.28991699 58.32244873 C-105.16043933 58.33877239 -86.84215791 57.37487711 -68 54 C-65.90630889 53.67280005 -63.81255945 53.34597309 -61.71875 53.01953125 C-56.91440797 52.21749449 -52.36796635 51.09671201 -47.75 49.5625 C-46.72616211 49.23644775 -46.72616211 49.23644775 -45.68164062 48.90380859 C-42.21674109 47.78724886 -38.84630564 46.55442584 -35.5 45.125 C-31.01809988 43.68438925 -28.60584043 44.10854701 -24 45 C-22.2675 45.2784375 -22.2675 45.2784375 -20.5 45.5625 C-19.675 45.706875 -18.85 45.85125 -18 46 C-18.185625 45.13375 -18.37125 44.2675 -18.5625 43.375 C-18 40 -18 40 -16.171875 38.3359375 C-12.26123095 35.70725955 -8.41373161 33.66200906 -4 32 C-4 29.69 -4 27.38 -4 25 C-3.360625 24.7525 -2.72125 24.505 -2.0625 24.25 C0.13691149 23.21438632 0.13691149 23.21438632 0.63647461 21.20605469 C1.02219609 18.865303 1.02281679 16.81965393 0.87890625 14.453125 C0.83056641 13.60878906 0.78222656 12.76445312 0.73242188 11.89453125 C0.67634766 11.02183594 0.62027344 10.14914063 0.5625 9.25 C0.51029297 8.36183594 0.45808594 7.47367188 0.40429688 6.55859375 C0.27498267 4.37200804 0.14003358 2.18592106 0 0 Z " fill="#FBF9FA" transform="translate(376,232)"/>
<path d="M0 0 C0.66 0 1.32 0 2 0 C2 0.66 2 1.32 2 2 C2.99 2.33 3.98 2.66 5 3 C5.556875 3.185625 6.11375 3.37125 6.6875 3.5625 C10.14041008 4.21575326 13.4884189 4.05852635 17 4 C17 5.65 17 7.3 17 9 C17.66427002 8.98259766 18.32854004 8.96519531 19.01293945 8.94726562 C43.78378892 8.58282892 77.2745831 15.53798472 96 33 C100.15430978 37.97790472 101.54911845 42.5204023 101 49 C92.97985397 63.85212228 76.00654889 70.00766933 60.72998047 74.69677734 C49.7197869 77.76395653 38.3162877 79.5037502 27 81 C25.80777832 81.17281494 24.61555664 81.34562988 23.38720703 81.52368164 C10.43790566 83.27430979 -2.46589269 83.2719302 -15.51464844 83.20581055 C-19.25723057 83.18746456 -22.99956485 83.18530226 -26.7421875 83.18554688 C-50.08676949 83.15189783 -50.08676949 83.15189783 -61 82 C-61.84191895 81.91210205 -62.68383789 81.8242041 -63.55126953 81.73364258 C-87.51733653 78.95094593 -118.96822726 73.48843752 -136 55 C-139.32447135 50.26514686 -139.88552845 45.63888231 -139 40 C-133.71505238 28.98969246 -121.56946807 23.1473575 -110.62158203 19.12646484 C-106.61608285 17.73689794 -102.58814868 16.43276597 -98.54296875 15.1640625 C-95.21557639 14.36593002 -95.21557639 14.36593002 -94 13 C-91.43646489 12.62153115 -88.88609499 12.29178048 -86.3125 12 C-81.51731381 11.44150698 -76.75673848 10.8389838 -72 10 C-72 9.34 -72 8.68 -72 8 C-68.535 7.505 -68.535 7.505 -65 7 C-65 6.34 -65 5.68 -65 5 C-63.9275 5.020625 -62.855 5.04125 -61.75 5.0625 C-58.85209576 5.0142016 -56.71387859 4.86844115 -54 4 C-54 4.99 -54 5.98 -54 7 C-50.535 6.505 -50.535 6.505 -47 6 C-47 5.34 -47 4.68 -47 4 C-46.34 4 -45.68 4 -45 4 C-45 4.66 -45 5.32 -45 6 C-44.34 5.67 -43.68 5.34 -43 5 C-43 4.34 -43 3.68 -43 3 C-41.68 3 -40.36 3 -39 3 C-39 3.99 -39 4.98 -39 6 C-34.05 6 -29.1 6 -24 6 C-24 5.34 -24 4.68 -24 4 C-21.03 4.495 -21.03 4.495 -18 5 C-18 4.34 -18 3.68 -18 3 C-11.21305674 1.43378232 -4.71710466 2.48323443 2 4 C1.67 3.67 1.34 3.34 1 3 C0.67 2.01 0.34 1.02 0 0 Z " fill="#DAC8AC" transform="translate(268,208)"/>
<path d="M0 0 C0.82607758 0.00126892 1.65215515 0.00253784 2.50326538 0.00384521 C14.43915608 0.03881266 26.14082991 0.21996412 37.9375 2.1875 C39.69755371 2.47004639 39.69755371 2.47004639 41.49316406 2.75830078 C93.55126529 11.21038115 93.55126529 11.21038115 106.9375 27.1875 C107.4634375 27.79464844 107.989375 28.40179688 108.53125 29.02734375 C111.0088459 32.83320635 110.52870542 36.81257987 109.9375 41.1875 C106.05370127 50.19085161 94.61424848 55.56479917 85.9375 59.1875 C81.65258858 60.71580394 77.3216128 61.97674279 72.9375 63.1875 C71.77992188 63.5278125 70.62234375 63.868125 69.4296875 64.21875 C56.10742547 67.89002054 41.76999672 70.1875 27.9375 70.1875 C28.125 68.3125 28.125 68.3125 28.9375 66.1875 C31.82861788 64.66585901 33.65573412 64.1875 36.9375 64.1875 C36.9375 63.5275 36.9375 62.8675 36.9375 62.1875 C34.6275 62.1875 32.3175 62.1875 29.9375 62.1875 C30.9375 60.1875 30.9375 60.1875 33.9375 59.1875 C32.90625 58.671875 31.875 58.15625 30.8125 57.625 C23.41136827 53.35110703 18.65156363 45.72099078 14.9375 38.1875 C14.9375 37.1975 14.9375 36.2075 14.9375 35.1875 C15.906875 34.61 16.87625 34.0325 17.875 33.4375 C21.2741434 31.42698413 21.2741434 31.42698413 21.9375 27.5625 C21.9375 26.44875 21.9375 25.335 21.9375 24.1875 C19.46753576 21.71753576 18.59852667 21.86418222 15.1875 21.8125 C14.34703125 21.78414062 13.5065625 21.75578125 12.640625 21.7265625 C9.05592112 22.33782703 6.82933095 24.04822155 3.9375 26.1875 C3.88142578 24.27324219 3.88142578 24.27324219 3.82421875 22.3203125 C3.75857209 20.65101162 3.6921243 18.98174211 3.625 17.3125 C3.59116211 16.04986328 3.59116211 16.04986328 3.55664062 14.76171875 C3.52119141 13.95605469 3.48574219 13.15039062 3.44921875 12.3203125 C3.42303467 11.57668457 3.39685059 10.83305664 3.36987305 10.06689453 C3.07020409 7.78016174 3.07020409 7.78016174 -0.0625 6.1875 C-4.3100253 5.87858907 -7.4211453 5.85703299 -11.0625 8.1875 C-10.0725 8.1875 -9.0825 8.1875 -8.0625 8.1875 C-6.45298457 11.40653085 -6.82015252 14.93588832 -6.74609375 18.4765625 C-6.72531265 19.29498627 -6.70453156 20.11341003 -6.68312073 20.95663452 C-6.61765188 23.57516966 -6.55875274 26.19380639 -6.5 28.8125 C-6.45681224 30.58594807 -6.41319786 32.35938581 -6.36914062 34.1328125 C-6.26197324 38.48427046 -6.16069831 42.83583077 -6.0625 47.1875 C-2.77273192 48.28408936 -1.34946233 47.98703138 1.9375 47.1875 C1.94007813 46.11371094 1.94265625 45.03992188 1.9453125 43.93359375 C2.21433277 30.97198456 2.21433277 30.97198456 6 26.6875 C6.969375 25.8625 7.93875 25.0375 8.9375 24.1875 C10.5875 24.5175 12.2375 24.8475 13.9375 25.1875 C13.76451599 27.52278415 13.23524631 28.87927582 11.60546875 30.56640625 C7.36538462 34.1875 7.36538462 34.1875 4.9375 34.1875 C6.2575 37.8175 7.5775 41.4475 8.9375 45.1875 C7.6175 46.5075 6.2975 47.8275 4.9375 49.1875 C4.9375 49.8475 4.9375 50.5075 4.9375 51.1875 C1.42926465 53.52632357 -2.292179 55.38280864 -6.125 57.125 C-8.15856201 58.24017917 -9.50944668 59.47914135 -11.0625 61.1875 C-13.0425 60.5275 -15.0225 59.8675 -17.0625 59.1875 C-17.0625 58.5275 -17.0625 57.8675 -17.0625 57.1875 C-18.5165625 57.001875 -18.5165625 57.001875 -20 56.8125 C-21.010625 56.60625 -22.02125 56.4 -23.0625 56.1875 C-23.3925 55.5275 -23.7225 54.8675 -24.0625 54.1875 C-23.125 52.0625 -23.125 52.0625 -22.0625 50.1875 C-22.7225 49.8575 -23.3825 49.5275 -24.0625 49.1875 C-23.5675 48.6925 -23.5675 48.6925 -23.0625 48.1875 C-23.04571214 46.7846759 -23.09995403 45.38089786 -23.18359375 43.98046875 C-23.23201416 43.09246582 -23.28043457 42.20446289 -23.33032227 41.28955078 C-23.38631592 40.32774902 -23.44230957 39.36594727 -23.5 38.375 C-24.06575636 27.63536832 -24.16745242 16.93929284 -24.0625 6.1875 C-26.7025 6.1875 -29.3425 6.1875 -32.0625 6.1875 C-32.3925 5.5275 -32.7225 4.8675 -33.0625 4.1875 C-32.4025 4.1875 -31.7425 4.1875 -31.0625 4.1875 C-30.7325 3.1975 -30.4025 2.2075 -30.0625 1.1875 C-20.03626689 0.11857636 -10.0700157 -0.01591378 0 0 Z " fill="#DAC8AC" transform="translate(255.0625,216.8125)"/>
<path d="M0 0 C3.89611039 0.01604839 7.79117715 0.00008069 11.68725586 -0.01904297 C26.5344145 -0.03072791 40.96613392 0.79930032 55.65003967 3.02081299 C58.0189712 3.37895894 60.39016114 3.71096803 62.76391602 4.03540039 C81.14467756 6.63865911 107.97787024 13.06477379 120.43920898 27.99658203 C123.73472354 32.74634501 124.58504684 36.66007029 124.09936523 42.39111328 C116.0792192 57.24323556 99.10591413 63.39878261 83.8293457 68.08789062 C72.81915213 71.15506981 61.41565294 72.89486348 50.09936523 74.39111328 C48.90714355 74.56392822 47.71492187 74.73674316 46.48657227 74.91479492 C33.5372709 76.66542307 20.63347255 76.66304348 7.5847168 76.59692383 C3.84213466 76.57857784 0.09980038 76.57641554 -3.64282227 76.57666016 C-26.98740426 76.54301111 -26.98740426 76.54301111 -37.90063477 75.39111328 C-38.74255371 75.30321533 -39.58447266 75.21531738 -40.4519043 75.12475586 C-64.4179713 72.34205921 -95.86886202 66.8795508 -112.90063477 48.39111328 C-116.22510612 43.65626014 -116.78616322 39.0299956 -115.90063477 33.39111328 C-109.83437496 20.75307202 -95.0386663 15.22443927 -82.71313477 10.51611328 C-76.77651703 8.47016028 -71.16784246 7.5318057 -64.90063477 7.39111328 C-64.90063477 8.05111328 -64.90063477 8.71111328 -64.90063477 9.39111328 C-65.50834717 9.55603271 -66.11605957 9.72095215 -66.7421875 9.89086914 C-77.3105499 12.80645108 -87.71787044 15.78529599 -97.46313477 20.89111328 C-98.1333667 21.23392334 -98.80359863 21.5767334 -99.49414062 21.92993164 C-105.08550964 25.01751062 -109.84381019 29.22063954 -111.90063477 35.39111328 C-112.43950852 39.36530721 -112.72481426 41.90646119 -110.76000977 45.44580078 C-104.23741779 53.58320921 -94.58788618 58.10436726 -84.90063477 61.39111328 C-84.2609375 61.72498047 -83.62124023 62.05884766 -82.9621582 62.40283203 C-80.7596316 63.4587093 -78.81296644 63.93939911 -76.41625977 64.39111328 C-75.56290039 64.55611328 -74.70954102 64.72111328 -73.83032227 64.89111328 C-72.94602539 65.05611328 -72.06172852 65.22111328 -71.15063477 65.39111328 C-61.19959804 67.28092441 -61.19959804 67.28092441 -56.62719727 68.45361328 C-37.63527427 73.23145554 -17.69077488 73.83103787 1.78686523 73.82861328 C2.86953674 73.83001312 3.95220825 73.83141296 5.06768799 73.83285522 C34.99519688 73.80130522 69.59234319 72.51200966 97.09936523 59.39111328 C98.09323242 58.92705078 99.08709961 58.46298828 100.11108398 57.98486328 C111.63669638 52.8758338 111.63669638 52.8758338 119.09936523 43.39111328 C119.90149976 36.97358578 119.90149976 36.97358578 117.57592773 31.20751953 C117.08866211 30.60810547 116.60139648 30.00869141 116.09936523 29.39111328 C116.09936523 28.73111328 116.09936523 28.07111328 116.09936523 27.39111328 C115.54893555 27.12943359 114.99850586 26.86775391 114.43139648 26.59814453 C111.78567413 25.22875055 109.31452074 23.65533892 106.78686523 22.07861328 C99.81633525 17.97980531 92.79684579 15.73976983 85.09936523 13.39111328 C84.44291016 13.15465088 83.78645508 12.91818848 83.11010742 12.67456055 C71.8839443 8.65180924 59.82917262 7.27721007 48.09936523 5.39111328 C47.25615723 5.25253906 46.41294922 5.11396484 45.54418945 4.97119141 C20.65955763 1.05861772 -8.08705927 1.56386497 -33.00610352 4.92236328 C-36.68725768 5.36543098 -40.19682828 5.4921946 -43.90063477 5.45361328 C-45.03500977 5.44458984 -46.16938477 5.43556641 -47.33813477 5.42626953 C-48.18375977 5.41466797 -49.02938477 5.40306641 -49.90063477 5.39111328 C-37.39685881 -2.94473736 -14.31634924 -0.06992769 0 0 Z " fill="#967862" transform="translate(244.900634765625,214.60888671875)"/>
<path d="M0 0 C11.88 0 23.76 0 36 0 C35 4 35 4 34 6 C33.484375 5.835 32.96875 5.67 32.4375 5.5 C27.61734416 4.51125008 23.24217099 4.28501057 19 7 C19.99 7 20.98 7 22 7 C23.60951543 10.21903085 23.24234748 13.74838832 23.31640625 17.2890625 C23.33718735 18.10748627 23.35796844 18.92591003 23.37937927 19.76913452 C23.44484812 22.38766966 23.50374726 25.00630639 23.5625 27.625 C23.60568776 29.39844807 23.64930214 31.17188581 23.69335938 32.9453125 C23.80052676 37.29677046 23.90180169 41.64833077 24 46 C27.28976808 47.09658936 28.71303767 46.79953138 32 46 C32.00257813 44.92621094 32.00515625 43.85242188 32.0078125 42.74609375 C32.27683277 29.78448456 32.27683277 29.78448456 36.0625 25.5 C37.031875 24.675 38.00125 23.85 39 23 C40.65 23.33 42.3 23.66 44 24 C43.82701599 26.33528415 43.29774631 27.69177582 41.66796875 29.37890625 C37.42788462 33 37.42788462 33 35 33 C36.32 36.63 37.64 40.26 39 44 C37.68 45.32 36.36 46.64 35 48 C35 48.66 35 49.32 35 50 C31.49176465 52.33882357 27.770321 54.19530864 23.9375 55.9375 C21.90393799 57.05267917 20.55305332 58.29164135 19 60 C17.02 59.34 15.04 58.68 13 58 C13 57.34 13 56.68 13 56 C11.5459375 55.814375 11.5459375 55.814375 10.0625 55.625 C9.051875 55.41875 8.04125 55.2125 7 55 C6.67 54.34 6.34 53.68 6 53 C6.9375 50.875 6.9375 50.875 8 49 C7.34 48.67 6.68 48.34 6 48 C6.495 47.505 6.495 47.505 7 47 C7.01678786 45.5971759 6.96254597 44.19339786 6.87890625 42.79296875 C6.83048584 41.90496582 6.78206543 41.01696289 6.73217773 40.10205078 C6.67618408 39.14024902 6.62019043 38.17844727 6.5625 37.1875 C5.99674364 26.44786832 5.89504758 15.75179284 6 5 C3.36 5 0.72 5 -2 5 C-2.33 4.34 -2.66 3.68 -3 3 C-2.34 3 -1.68 3 -1 3 C-0.67 2.01 -0.34 1.02 0 0 Z " fill="#DDCCB1" transform="translate(225,218)"/>
<path d="M0 0 C2.171875 0.9765625 2.171875 0.9765625 4 3 C4.64307801 5.885047 4.69679852 8.73965463 4.75 11.6875 C4.77964844 12.48478516 4.80929687 13.28207031 4.83984375 14.10351562 C4.91044082 16.06846749 4.95749708 18.03423977 5 20 C5.71929687 19.34902344 6.43859375 18.69804687 7.1796875 18.02734375 C10.22427475 15.83878311 11.45768579 15.47838729 15.125 15.5625 C15.97320312 15.56378906 16.82140625 15.56507813 17.6953125 15.56640625 C20.45047514 16.08475041 21.3886425 16.72514235 23 19 C23 22.4375 23 22.4375 22 26 C19.5625 28.4375 19.5625 28.4375 17 30 C16.34 30 15.68 30 15 30 C21.20519156 42.44683945 21.20519156 42.44683945 31 52 C33.64934822 52.71433121 33.64934822 52.71433121 36 53 C33.31769816 55.68230184 31.43198814 55.9592464 27.6875 56.3125 C21.69794018 55.80491019 18.46745356 52.6746708 14.5 48.4375 C9.82608002 42.88917183 5 36.4085748 5 29 C7.875 26.875 7.875 26.875 11 25 C11.66 24.34 12.32 23.68 13 23 C13 22.01 13 21.02 13 20 C9.72460269 20.27294978 8.28094488 20.73144975 5.875 23.03125 C3.44163588 26.88407652 3.33780917 29.84620629 3.25 34.3125 C3.22035156 35.05306641 3.19070313 35.79363281 3.16015625 36.55664062 C3.08994155 38.37052046 3.04264952 40.18526278 3 42 C0.25 43.125 0.25 43.125 -3 44 C-4.32 43.34 -5.64 42.68 -7 42 C-7.33 29.13 -7.66 16.26 -8 3 C-8.66 3 -9.32 3 -10 3 C-10.33 3.66 -10.66 4.32 -11 5 C-11 4.01 -11 3.02 -11 2 C-7.35187527 -0.33479983 -4.25812212 -0.38018947 0 0 Z " fill="#6C4332" transform="translate(255,222)"/>
<path d="M0 0 C2.28267324 2.28267324 2.53191044 3.75377822 2.98828125 6.92578125 C3.13394531 7.89386719 3.27960938 8.86195313 3.4296875 9.859375 C3.93160547 13.83773536 4.40823144 17.80985822 4.80078125 21.80078125 C6.12078125 21.47078125 7.44078125 21.14078125 8.80078125 20.80078125 C7.99640625 21.58453125 7.19203125 22.36828125 6.36328125 23.17578125 C3.81387708 25.52060981 3.81387708 25.52060981 2.80078125 27.80078125 C1.15078125 27.80078125 -0.49921875 27.80078125 -2.19921875 27.80078125 C-2.52921875 26.81078125 -2.85921875 25.82078125 -3.19921875 24.80078125 C-4.06933594 25.43306641 -4.06933594 25.43306641 -4.95703125 26.078125 C-12.71591471 31.51958617 -12.71591471 31.51958617 -18.19921875 31.80078125 C-20.62918344 29.21894377 -22.06403947 27.42260595 -22.82421875 23.92578125 C-21.6254545 17.93195998 -17.1259343 14.32521058 -12.32421875 10.86328125 C-11.29296875 10.18265625 -10.26171875 9.50203125 -9.19921875 8.80078125 C-9.52921875 6.49078125 -9.85921875 4.18078125 -10.19921875 1.80078125 C-14.65421875 3.28578125 -14.65421875 3.28578125 -19.19921875 4.80078125 C-19.19921875 5.46078125 -19.19921875 6.12078125 -19.19921875 6.80078125 C-17.87921875 6.80078125 -16.55921875 6.80078125 -15.19921875 6.80078125 C-15.52921875 8.45078125 -15.85921875 10.10078125 -16.19921875 11.80078125 C-16.85921875 11.80078125 -17.51921875 11.80078125 -18.19921875 11.80078125 C-18.19921875 12.46078125 -18.19921875 13.12078125 -18.19921875 13.80078125 C-19.51921875 13.47078125 -20.83921875 13.14078125 -22.19921875 12.80078125 C-23.07421875 9.61328125 -23.07421875 9.61328125 -23.19921875 5.80078125 C-17.65069101 -0.28906627 -7.8082234 -4.25777013 0 0 Z " fill="#6B4231" transform="translate(203.19921875,245.19921875)"/>
<path d="M0 0 C1.809748 1.21090195 3.37827275 2.59702275 4.91796875 4.13671875 C4.95860707 5.8028899 4.96068975 7.4705997 4.91796875 9.13671875 C2.83595347 9.64217911 0.75229808 10.1408871 -1.33203125 10.63671875 C-2.4921875 10.91515625 -3.65234375 11.19359375 -4.84765625 11.48046875 C-8.08203125 12.13671875 -8.08203125 12.13671875 -12.08203125 12.13671875 C-11.2710084 15.97064496 -10.59621771 18.56203976 -7.95703125 21.51171875 C-4.20846519 23.63047348 -1.36137304 23.84659388 2.91796875 24.13671875 C2.25796875 25.45671875 1.59796875 26.77671875 0.91796875 28.13671875 C-6.48759752 28.59012077 -11.50721827 27.49284549 -17.83203125 23.32421875 C-21.49650991 19.76153116 -23.22327039 16.21754822 -23.58203125 11.13671875 C-23.40098331 6.41136749 -21.44317382 4.34508211 -18.08203125 1.13671875 C-13.03884019 -2.05075266 -5.47523348 -2.27021876 0 0 Z " fill="#6D4534" transform="translate(311.08203125,244.86328125)"/>
<path d="M0 0 C3.89611039 0.01604839 7.79117715 0.00008069 11.68725586 -0.01904297 C26.5344145 -0.03072791 40.96613392 0.79930032 55.65003967 3.02081299 C58.0189712 3.37895894 60.39016114 3.71096803 62.76391602 4.03540039 C81.14467756 6.63865911 107.97787024 13.06477379 120.43920898 27.99658203 C123.79947639 32.83967207 124.2086958 36.5965932 124.09936523 42.39111328 C123.76936523 42.39111328 123.43936523 42.39111328 123.09936523 42.39111328 C123.09936523 40.41111328 123.09936523 38.43111328 123.09936523 36.39111328 C122.43936523 36.39111328 121.77936523 36.39111328 121.09936523 36.39111328 C121.09936523 38.04111328 121.09936523 39.69111328 121.09936523 41.39111328 C120.76936523 41.39111328 120.43936523 41.39111328 120.09936523 41.39111328 C119.97819336 40.71564453 119.85702148 40.04017578 119.73217773 39.34423828 C119.48081055 38.00619141 119.48081055 38.00619141 119.22436523 36.64111328 C119.06194336 35.75939453 118.89952148 34.87767578 118.73217773 33.96923828 C118.11273495 31.4455825 117.52440136 29.56169811 116.09936523 27.39111328 C114.27700576 26.28408387 114.27700576 26.28408387 112.09936523 25.39111328 C110.32829697 24.28732348 108.55749157 23.18311186 106.78686523 22.07861328 C99.81633525 17.97980531 92.79684579 15.73976983 85.09936523 13.39111328 C84.44291016 13.15465088 83.78645508 12.91818848 83.11010742 12.67456055 C71.8839443 8.65180924 59.82917262 7.27721007 48.09936523 5.39111328 C47.25615723 5.25253906 46.41294922 5.11396484 45.54418945 4.97119141 C20.65955763 1.05861772 -8.08705927 1.56386497 -33.00610352 4.92236328 C-36.68725768 5.36543098 -40.19682828 5.4921946 -43.90063477 5.45361328 C-45.03500977 5.44458984 -46.16938477 5.43556641 -47.33813477 5.42626953 C-48.18375977 5.41466797 -49.02938477 5.40306641 -49.90063477 5.39111328 C-37.39685881 -2.94473736 -14.31634924 -0.06992769 0 0 Z " fill="#9C7F69" transform="translate(244.900634765625,214.60888671875)"/>
<path d="M0 0 C0.77601563 0.00644531 1.55203125 0.01289063 2.3515625 0.01953125 C4.375 0.1875 4.375 0.1875 6.375 1.1875 C6.78564453 4.00390625 6.78564453 4.00390625 7.0078125 7.75 C7.04937469 8.41531738 7.09093689 9.08063477 7.13375854 9.76611328 C7.2204445 11.18153602 7.30250906 12.59724804 7.38037109 14.01318359 C7.49801356 16.15139538 7.62847862 18.28849065 7.76171875 20.42578125 C8.18113421 27.35313677 8.48344899 34.24676469 8.375 41.1875 C3.05033468 44.33389314 3.05033468 44.33389314 0.23510742 43.72363281 C-1.625 42.1875 -1.625 42.1875 -2.33862305 39.02636719 C-2.45728094 37.68059832 -2.55526609 36.33290717 -2.63671875 34.984375 C-2.69527542 34.26896545 -2.75383209 33.55355591 -2.81416321 32.81646729 C-2.99813474 30.52445807 -3.15599031 28.23153291 -3.3125 25.9375 C-3.48534409 23.65846505 -3.66347561 21.37989917 -3.8429718 19.10137939 C-3.95273048 17.68375662 -4.05763844 16.26574708 -4.15690613 14.84735107 C-4.4403753 10.9106195 -4.91282987 7.06959927 -5.625 3.1875 C-6.285 3.1875 -6.945 3.1875 -7.625 3.1875 C-7.955 3.8475 -8.285 4.5075 -8.625 5.1875 C-8.625 4.1975 -8.625 3.2075 -8.625 2.1875 C-5.61560247 0.44919503 -3.46557335 -0.063748 0 0 Z " fill="#6C4131" transform="translate(224.625,223.8125)"/>
<path d="M0 0 C1.59714844 0.29003906 1.59714844 0.29003906 3.2265625 0.5859375 C25.13370204 4.5321175 46.30458354 6.20487152 68.55371094 6.24023438 C72.20010836 6.24986819 75.84592335 6.28093915 79.4921875 6.3125 C94.72434668 6.37891256 109.52855693 5.38608943 124.61541748 3.27142334 C127 3 127 3 131 3 C131 4.65 131 6.3 131 8 C128.29120665 9.35439668 125.99066732 9.06501451 123 9 C123 8.01 123 7.02 123 6 C122.34 6.33 121.68 6.66 121 7 C120.34786708 9.02463255 120.34786708 9.02463255 120 11 C118.72125 11.061875 117.4425 11.12375 116.125 11.1875 C115.40570313 11.22230469 114.68640625 11.25710938 113.9453125 11.29296875 C113.30335938 11.19628906 112.66140625 11.09960938 112 11 C111.01 9.515 111.01 9.515 110 8 C108.03638136 7.42251197 108.03638136 7.42251197 105.875 7.3125 C103.956875 7.1578125 103.956875 7.1578125 102 7 C102 7.66 102 8.32 102 9 C98.6317901 9.58943673 95.2700338 10.0994623 91.875 10.5 C89.13644663 10.85336173 86.63582831 11.23121674 84 12 C84 12.66 84 13.32 84 14 C82.68 14 81.36 14 80 14 C80 12.35 80 10.7 80 9 C75.71 9.66 71.42 10.32 67 11 C67 10.34 67 9.68 67 9 C66.14921875 9.50853516 66.14921875 9.50853516 65.28125 10.02734375 C62.61473784 11.16426417 61.33214526 11.02036348 58.5 10.5625 C52.5697459 9.80130321 46.91949114 10.33888845 41 11 C41 10.34 41 9.68 41 9 C40.41992188 9.01160156 39.83984375 9.02320313 39.2421875 9.03515625 C34.68937645 9.08774648 30.48947014 8.85513717 26 8 C25.01 8 24.02 8 23 8 C23 8.66 23 9.32 23 10 C19.75791433 9.64950425 18.38472296 9.43778819 16.1875 6.9375 C15.795625 6.298125 15.40375 5.65875 15 5 C14.28457031 5.19464844 13.56914062 5.38929688 12.83203125 5.58984375 C9.6117801 6.05622495 7.75310842 5.58436947 4.6875 4.5625 C3.80449219 4.27503906 2.92148438 3.98757813 2.01171875 3.69140625 C1.34785156 3.46324219 0.68398437 3.23507812 0 3 C0 2.01 0 1.02 0 0 Z " fill="#D7C7B7" transform="translate(176,284)"/>
<path d="M0 0 C0.20496094 0.77085937 0.40992188 1.54171875 0.62109375 2.3359375 C1.02521484 3.84027344 1.02521484 3.84027344 1.4375 5.375 C1.70433594 6.37273437 1.97117188 7.37046875 2.24609375 8.3984375 C2.90184356 10.95417701 2.90184356 10.95417701 4 13 C-5.22551253 19.70387244 -5.22551253 19.70387244 -11 20 C-13.42996469 17.41816252 -14.86482072 15.6218247 -15.625 12.125 C-14.52108463 6.60542316 -10.73592452 3.32260916 -6.375 0 C-3.62995253 -1.15580946 -2.75767529 -0.83777477 0 0 Z " fill="#6D4433" transform="translate(196,257)"/>
<path d="M0 0 C0.66 0 1.32 0 2 0 C2 0.66 2 1.32 2 2 C2.99 2.33 3.98 2.66 5 3 C5.556875 3.185625 6.11375 3.37125 6.6875 3.5625 C10.14041008 4.21575326 13.4884189 4.05852635 17 4 C17 5.32 17 6.64 17 8 C16.18869125 7.99777939 15.37738251 7.99555878 14.54148865 7.99327087 C6.87655829 7.97319131 -0.78835922 7.95798685 -8.45330906 7.94818783 C-12.39344472 7.94298063 -16.33355854 7.93592245 -20.27368164 7.92456055 C-24.07973888 7.91365456 -27.88577518 7.90770688 -31.69184685 7.90512276 C-33.14022081 7.90328237 -34.5885937 7.89968863 -36.03695869 7.89426994 C-38.07357336 7.88695702 -40.11010273 7.88601335 -42.14672852 7.88647461 C-43.88213646 7.88314369 -43.88213646 7.88314369 -45.65260315 7.87974548 C-49.16293136 8.00585327 -52.53146982 8.46025759 -56 9 C-57.39315986 9.06987589 -58.78873026 9.10918405 -60.18359375 9.09765625 C-61.23256836 9.09282227 -61.23256836 9.09282227 -62.30273438 9.08789062 C-63.00720703 9.07951172 -63.71167969 9.07113281 -64.4375 9.0625 C-65.16904297 9.05798828 -65.90058594 9.05347656 -66.65429688 9.04882812 C-68.43623419 9.03718148 -70.21812863 9.01925191 -72 9 C-69 7 -69 7 -65 7 C-65 6.34 -65 5.68 -65 5 C-63.9275 5.020625 -62.855 5.04125 -61.75 5.0625 C-58.85209576 5.0142016 -56.71387859 4.86844115 -54 4 C-54 4.99 -54 5.98 -54 7 C-50.535 6.505 -50.535 6.505 -47 6 C-47 5.34 -47 4.68 -47 4 C-46.34 4 -45.68 4 -45 4 C-45 4.66 -45 5.32 -45 6 C-44.34 5.67 -43.68 5.34 -43 5 C-43 4.34 -43 3.68 -43 3 C-41.68 3 -40.36 3 -39 3 C-39 3.99 -39 4.98 -39 6 C-34.05 6 -29.1 6 -24 6 C-24 5.34 -24 4.68 -24 4 C-22.02 4.33 -20.04 4.66 -18 5 C-18 4.34 -18 3.68 -18 3 C-11.21305674 1.43378232 -4.71710466 2.48323443 2 4 C1.505 3.505 1.505 3.505 1 3 C0.505 1.515 0.505 1.515 0 0 Z " fill="#E4D8CB" transform="translate(268,208)"/>
<path d="M0 0 C1.47668858 0.0133035 2.95331108 0.03716415 4.4296875 0.0703125 C5.18378906 0.07933594 5.93789062 0.08835938 6.71484375 0.09765625 C8.57826004 0.1212438 10.44151343 0.15711531 12.3046875 0.1953125 C12.3046875 0.8553125 12.3046875 1.5153125 12.3046875 2.1953125 C9.3346875 2.1953125 6.3646875 2.1953125 3.3046875 2.1953125 C3.3046875 2.8553125 3.3046875 3.5153125 3.3046875 4.1953125 C4.9546875 4.1953125 6.6046875 4.1953125 8.3046875 4.1953125 C8.3046875 5.5153125 8.3046875 6.8353125 8.3046875 8.1953125 C9.2946875 7.2053125 10.2846875 6.2153125 11.3046875 5.1953125 C11.9646875 5.5253125 12.6246875 5.8553125 13.3046875 6.1953125 C12.9746875 6.8553125 12.6446875 7.5153125 12.3046875 8.1953125 C12.9646875 8.8553125 13.6246875 9.5153125 14.3046875 10.1953125 C13.3146875 10.5253125 12.3246875 10.8553125 11.3046875 11.1953125 C11.9646875 11.8553125 12.6246875 12.5153125 13.3046875 13.1953125 C12.3765625 13.3190625 12.3765625 13.3190625 11.4296875 13.4453125 C9.14116121 13.99479333 9.14116121 13.99479333 8.1796875 16.1328125 C7.7465625 17.15375 7.7465625 17.15375 7.3046875 18.1953125 C6.6446875 18.8553125 5.9846875 19.5153125 5.3046875 20.1953125 C2.9946875 19.5353125 0.6846875 18.8753125 -1.6953125 18.1953125 C-3.19228552 12.50681502 -2.0301169 7.77722182 -0.6953125 2.1953125 C-2.3453125 2.1953125 -3.9953125 2.1953125 -5.6953125 2.1953125 C-3.6953125 0.1953125 -3.6953125 0.1953125 0 0 Z " fill="#E4D5BC" transform="translate(159.6953125,232.8046875)"/>
<path d="M0 0 C0 0.66 0 1.32 0 2 C0.65226562 1.98839844 1.30453125 1.97679687 1.9765625 1.96484375 C6.7761914 1.91529006 11.27784685 2.00586249 16 3 C16.33 2.34 16.66 1.68 17 1 C20.4375 1.8125 20.4375 1.8125 24 3 C24.495 4.485 24.495 4.485 25 6 C25.99 6.33 26.98 6.66 28 7 C28.33 6.01 28.66 5.02 29 4 C31.3431213 4.25561323 33.67843403 4.59270772 36 5 C36.495 5.99 36.495 5.99 37 7 C37.66 6.67 38.32 6.34 39 6 C39.78375 6.804375 40.5675 7.60875 41.375 8.4375 C43.71982856 10.98690417 43.71982856 10.98690417 46 12 C46 12.66 46 13.32 46 14 C42.00800842 13.42051735 38.42446469 12.52316616 34.625 11.1875 C28.12807364 9.13662693 21.59182968 7.92577813 14.875 6.8125 C13.8742041 6.64580811 12.8734082 6.47911621 11.84228516 6.30737305 C5.24533392 5.25335499 -1.34016906 4.5191496 -8 4 C-2.7826087 0 -2.7826087 0 0 0 Z " fill="#EBE2D5" transform="translate(293,213)"/>
<path d="M0 0 C2.97 0 5.94 0 9 0 C9.33 0.99 9.66 1.98 10 3 C10.99 2.67 11.98 2.34 13 2 C14.63657754 5.27315509 14.2430807 8.90622231 14.31640625 12.5078125 C14.33718735 13.34843231 14.35796844 14.18905212 14.37937927 15.05514526 C14.44485439 17.74501235 14.5037502 20.43497843 14.5625 23.125 C14.60568716 24.94662489 14.64930152 26.76823971 14.69335938 28.58984375 C14.80053368 33.05979394 14.90180685 37.52984386 15 42 C14.01 42 13.02 42 12 42 C12.33 31.77 12.66 21.54 13 11 C8.38 11 3.76 11 -1 11 C-1.125 2.25 -1.125 2.25 0 0 Z " fill="#D5C0A3" transform="translate(234,223)"/>
<path d="M0 0 C0 0.66 0 1.32 0 2 C-0.6077124 2.16491943 -1.2154248 2.32983887 -1.84155273 2.49975586 C-12.40991513 5.4153378 -22.81723568 8.3941827 -32.5625 13.5 C-33.23273193 13.84281006 -33.90296387 14.18562012 -34.59350586 14.53881836 C-40.04354686 17.54835538 -44.57408789 21.60937692 -47.0234375 27.43359375 C-47.13945312 28.09488281 -47.25546875 28.75617188 -47.375 29.4375 C-47.58125 30.613125 -47.7875 31.78875 -48 33 C-49.5625 31.875 -49.5625 31.875 -51 30 C-51.2010837 25.6767005 -49.65009952 23.22326058 -47 20 C-39.92815577 12.4691314 -31.5351372 8.62895388 -22 5 C-21.02160156 4.61585938 -20.04320312 4.23171875 -19.03515625 3.8359375 C-12.50300632 1.34493931 -7.02430615 0 0 0 Z " fill="#9E846C" transform="translate(180,222)"/>
<path d="M0 0 C0.99 0.33 1.98 0.66 3 1 C3.36644578 2.55966592 3.71760862 4.12292651 4.0625 5.6875 C4.35833984 6.99267578 4.35833984 6.99267578 4.66015625 8.32421875 C5.03213069 11.25298302 4.96696938 13.20811293 4 16 C2.29296875 17.2578125 2.29296875 17.2578125 0.1875 18.125 C-2.88449274 19.47689663 -5.33174541 20.94749647 -8 23 C-8.66 23 -9.32 23 -10 23 C-10 24.98 -10 26.96 -10 29 C-11.43836751 28.88541307 -12.87570966 28.75790884 -14.3125 28.625 C-15.11300781 28.55539062 -15.91351563 28.48578125 -16.73828125 28.4140625 C-19 28 -19 28 -22 26 C-21.19175781 25.62488281 -20.38351562 25.24976563 -19.55078125 24.86328125 C-11.46353941 21.00172604 -11.46353941 21.00172604 -5 15 C-4.443125 14.484375 -3.88625 13.96875 -3.3125 13.4375 C0.51959297 9.24044579 0.18149436 5.44483084 0 0 Z " fill="#E0CFBF" transform="translate(368,249)"/>
<path d="M0 0 C11.88 0 23.76 0 36 0 C35 4 35 4 34 6 C33.484375 5.835 32.96875 5.67 32.4375 5.5 C28.47179167 4.68652137 24.56749771 4.61006235 20.62890625 5.58984375 C17.48042759 6.08106256 15.42332363 5.5734453 12.375 4.6875 C10.96347656 4.29111328 10.96347656 4.29111328 9.5234375 3.88671875 C7 3 7 3 4 1 C4 1.66 4 2.32 4 3 C3.34 3 2.68 3 2 3 C2 3.66 2 4.32 2 5 C0.35 4.67 -1.3 4.34 -3 4 C-2.34 3.67 -1.68 3.34 -1 3 C-0.67 2.01 -0.34 1.02 0 0 Z " fill="#E8D8BD" transform="translate(225,218)"/>
<path d="M0 0 C1.65 0 3.3 0 5 0 C4.57847656 0.55429688 4.15695313 1.10859375 3.72265625 1.6796875 C3.17480469 2.40414062 2.62695312 3.12859375 2.0625 3.875 C1.51722656 4.59429687 0.97195312 5.31359375 0.41015625 6.0546875 C-2.59176885 10.19584734 -2.62005911 14.0068924 -2 19 C-0.91738212 21.61796687 0.4019659 23.62716149 2 26 C2.33 26.66 2.66 27.32 3 28 C1.5199159 27.88637738 0.04089926 27.75877092 -1.4375 27.625 C-2.26121094 27.55539062 -3.08492187 27.48578125 -3.93359375 27.4140625 C-4.61550781 27.27742188 -5.29742187 27.14078125 -6 27 C-7.17469444 24.65061112 -7.20034889 23.04926795 -7.31640625 20.4296875 C-7.35830078 19.53378906 -7.40019531 18.63789063 -7.44335938 17.71484375 C-7.48267578 16.77769531 -7.52199219 15.84054688 -7.5625 14.875 C-7.60568359 13.93011719 -7.64886719 12.98523438 -7.69335938 12.01171875 C-7.79959072 9.67462908 -7.90163176 7.3374317 -8 5 C-8.66 5 -9.32 5 -10 5 C-10 4.34 -10 3.68 -10 3 C-6.33694766 2.25073929 -3.57644848 1.7619986 0 3 C0 2.01 0 1.02 0 0 Z " fill="#F4EFEA" transform="translate(132,238)"/>
<path d="M0 0 C1.37488287 -0.02749766 2.74993391 -0.0466164 4.125 -0.0625 C5.27355469 -0.07990234 5.27355469 -0.07990234 6.4453125 -0.09765625 C9 0 9 0 11.79779053 0.50099182 C14.86767414 0.97937934 17.68761416 1.10803514 20.79003906 1.08178711 C21.9042926 1.0752562 23.01854614 1.06872528 24.16656494 1.06199646 C25.35425476 1.05056107 26.54194458 1.03912567 27.765625 1.02734375 C30.28906118 1.01470694 32.81249874 1.00234529 35.3359375 0.99023438 C39.3083068 0.96532692 43.28062572 0.93763209 47.25292969 0.90405273 C51.09049969 0.87399035 54.9279754 0.85612688 58.765625 0.83984375 C59.96141174 0.82638412 61.15719849 0.8129245 62.38922119 0.79905701 C63.49086609 0.79567825 64.59251099 0.7922995 65.72753906 0.78881836 C66.69983459 0.78136093 67.67213013 0.7739035 68.67388916 0.76622009 C71 1 71 1 73 3 C69.8096699 3.94166558 66.93229592 4.13189367 63.61157227 4.14526367 C62.53267227 4.15164352 61.45377228 4.15802338 60.34217834 4.16459656 C59.17867355 4.16570938 58.01516876 4.1668222 56.81640625 4.16796875 C55.60991928 4.17129715 54.40343231 4.17462555 53.16038513 4.17805481 C50.60245138 4.18312011 48.04451102 4.18546326 45.48657227 4.18530273 C41.60877256 4.18747409 37.73126443 4.20559233 33.85351562 4.22460938 C31.36198013 4.22754655 28.8704433 4.22952917 26.37890625 4.23046875 C25.23361954 4.23765427 24.08833282 4.24483978 22.90834045 4.25224304 C15.10957868 4.23057361 7.67201982 3.38802974 0 2 C0 1.34 0 0.68 0 0 Z " fill="#856550" transform="translate(208,287)"/>
<path d="M0 0 C1.65 0.33 3.3 0.66 5 1 C4.82701599 3.33528415 4.29774631 4.69177582 2.66796875 6.37890625 C-1.57211538 10 -1.57211538 10 -4 10 C-2.68 13.63 -1.36 17.26 0 21 C-1.32 22.32 -2.64 23.64 -4 25 C-4 25.66 -4 26.32 -4 27 C-6.97 26.67 -9.94 26.34 -13 26 C-12.67 25.34 -12.34 24.68 -12 24 C-9.4375 23.375 -9.4375 23.375 -7 23 C-6.99613281 21.38931641 -6.99613281 21.38931641 -6.9921875 19.74609375 C-6.72316723 6.78448456 -6.72316723 6.78448456 -2.9375 2.5 C-1.968125 1.675 -0.99875 0.85 0 0 Z " fill="#D7BFA8" transform="translate(264,241)"/>
<path d="M0 0 C2.51083114 1.25541557 2.87125446 2.50063488 4 5 C4.99 4.67 5.98 4.34 7 4 C8.26237731 6.52475462 8.09856404 8.31200466 8.0625 11.125 C8.05347656 12.03507813 8.04445312 12.94515625 8.03515625 13.8828125 C8.02355469 14.58148438 8.01195312 15.28015625 8 16 C6.54119891 15.85892253 5.08296449 15.71197585 3.625 15.5625 C2.40683594 15.44068359 2.40683594 15.44068359 1.1640625 15.31640625 C-1 15 -1 15 -3 14 C-3.08114106 12.22992286 -3.13925505 10.45877902 -3.1875 8.6875 C-3.22230469 7.70136719 -3.25710937 6.71523437 -3.29296875 5.69921875 C-3 3 -3 3 -1.48828125 1.14453125 C-0.99714844 0.76683594 -0.50601563 0.38914063 0 0 Z " fill="#E0CFB6" transform="translate(212,223)"/>
<path d="M0 0 C1.02738281 0.53109375 2.05476562 1.0621875 3.11328125 1.609375 C14.1409502 7.25401455 25.07777508 11.58626098 37 15 C37 15.33 37 15.66 37 16 C35.02 16 33.04 16 31 16 C31 16.66 31 17.32 31 18 C28.69 18 26.38 18 24 18 C24 16.68 24 15.36 24 14 C23.15695313 13.96261719 22.31390625 13.92523438 21.4453125 13.88671875 C20.34960938 13.82097656 19.25390625 13.75523437 18.125 13.6875 C17.03445312 13.62949219 15.94390625 13.57148438 14.8203125 13.51171875 C13.88960937 13.34285156 12.95890625 13.17398437 12 13 C10 10 10 10 10 7 C5.545 6.01 5.545 6.01 1 5 C0.67 3.35 0.34 1.7 0 0 Z " fill="#E1D2C1" transform="translate(137,268)"/>
<path d="M0 0 C0.66 0 1.32 0 2 0 C2.38953775 6.6221417 1.16061671 9.52164553 -3.125 14.4375 C-9.14256613 19.80098285 -15.44587388 23.40041905 -22.875 26.4375 C-23.85702393 26.84440063 -23.85702393 26.84440063 -24.85888672 27.25952148 C-29.6269572 29.1243476 -29.6269572 29.1243476 -33 28 C-31.5593949 25.1187898 -29.41116995 25.0077098 -26.515625 23.9765625 C-16.16156174 19.95712801 -5.84411812 15.43348518 -1 5 C-0.22514168 2.22861403 -0.22514168 2.22861403 0 0 Z " fill="#967860" transform="translate(366,251)"/>
<path d="M0 0 C0.66 0.99 1.32 1.98 2 3 C2.99 3.33 3.98 3.66 5 4 C5 4.66 5 5.32 5 6 C6.2065625 6.185625 6.2065625 6.185625 7.4375 6.375 C8.283125 6.58125 9.12875 6.7875 10 7 C10.33 7.66 10.66 8.32 11 9 C12.98 9 14.96 9 17 9 C17 9.66 17 10.32 17 11 C17.66 11 18.32 11 19 11 C19.33 13.97 19.66 16.94 20 20 C18.989375 19.113125 17.97875 18.22625 16.9375 17.3125 C9.1509033 10.71552224 1.39434327 6.79161427 -8 3 C-7.67 2.01 -7.34 1.02 -7 0 C-4.27584084 -1.36207958 -2.87220643 -0.86166193 0 0 Z " fill="#E6D8C8" transform="translate(347,225)"/>
<path d="M0 0 C0.66 0 1.32 0 2 0 C2 0.66 2 1.32 2 2 C2.99 2.33 3.98 2.66 5 3 C5.556875 3.185625 6.11375 3.37125 6.6875 3.5625 C10.14041008 4.21575326 13.4884189 4.05852635 17 4 C17 5.32 17 6.64 17 8 C3.47 7.34 -10.06 6.68 -24 6 C-24 5.34 -24 4.68 -24 4 C-21.03 4.495 -21.03 4.495 -18 5 C-18 4.34 -18 3.68 -18 3 C-11.21305674 1.43378232 -4.71710466 2.48323443 2 4 C1.67 3.67 1.34 3.34 1 3 C0.67 2.01 0.34 1.02 0 0 Z " fill="#EEE6D8" transform="translate(268,208)"/>
<path d="M0 0 C0.33 0 0.66 0 1 0 C1.14695313 0.56847656 1.29390625 1.13695312 1.4453125 1.72265625 C4.42163207 11.96872189 9.79216504 16.3748609 19.0078125 21.48828125 C22.61456782 23.31049314 26.16175812 24.74519015 30 26 C30 26.66 30 27.32 30 28 C19.0628181 27.50285537 9.23471012 20.86794514 2 13 C-0.64757515 9.18437699 -1.06232387 7.77281604 -0.6875 3.125 C-0.460625 2.09375 -0.23375 1.0625 0 0 Z " fill="#8D6E5A" transform="translate(130,250)"/>
<path d="M0 0 C1.59714844 0.29003906 1.59714844 0.29003906 3.2265625 0.5859375 C12.46364541 2.24820621 21.69712756 3.74683969 31 5 C28.33788628 6.37579827 25.93703384 7.37063561 23 8 C23 8.66 23 9.32 23 10 C19.75791433 9.64950425 18.38472296 9.43778819 16.1875 6.9375 C15.795625 6.298125 15.40375 5.65875 15 5 C14.28457031 5.19464844 13.56914062 5.38929688 12.83203125 5.58984375 C9.6117801 6.05622495 7.75310842 5.58436947 4.6875 4.5625 C3.80449219 4.27503906 2.92148438 3.98757813 2.01171875 3.69140625 C1.34785156 3.46324219 0.68398437 3.23507812 0 3 C0 2.01 0 1.02 0 0 Z " fill="#DACBB8" transform="translate(176,284)"/>
<path d="M0 0 C2 2 2 2 2.125 5.125 C2.08375 6.07375 2.0425 7.0225 2 8 C2.763125 7.814375 3.52625 7.62875 4.3125 7.4375 C7 7 7 7 10 8 C10.33 8.66 10.66 9.32 11 10 C11.99 10.66 12.98 11.32 14 12 C12.11197917 12.390625 10.22395833 12.78125 8.3359375 13.171875 C5.21091755 14.17245814 5.21091755 14.17245814 0 18 C0 12.06 0 6.12 0 0 Z " fill="#E4D0B7" transform="translate(259,225)"/>
<path d="M0 0 C2 3 2 3 1.91015625 5.48046875 C0.73758768 8.72642038 -0.64163017 9.5435225 -3.5625 11.3125 C-4.38878906 11.82425781 -5.21507812 12.33601563 -6.06640625 12.86328125 C-6.70449219 13.23839844 -7.34257812 13.61351562 -8 14 C-8.66 13.34 -9.32 12.68 -10 12 C-9.34 12 -8.68 12 -8 12 C-8 11.34 -8 10.68 -8 10 C-7.34 9.67 -6.68 9.34 -6 9 C-5.34786708 6.97536745 -5.34786708 6.97536745 -5 5 C-6.32 5 -7.64 5 -9 5 C-9 4.34 -9 3.68 -9 3 C-5.63316085 0.56839395 -4.26649636 0 0 0 Z " fill="#CBB69D" transform="translate(193,247)"/>
<path d="M0 0 C7.1394958 -0.48403361 7.1394958 -0.48403361 11 1.6875 C13 4 13 4 13.3125 6.75 C13.1578125 7.86375 13.1578125 7.86375 13 9 C10.04335481 10.4783226 7.25770263 10.06032783 4 10 C4 8.02 4 6.04 4 4 C3.34 3.67 2.68 3.34 2 3 C2 2.34 2 1.68 2 1 C1.34 0.67 0.68 0.34 0 0 Z " fill="#6A4331" transform="translate(303,245)"/>
<path d="M0 0 C0.66 0 1.32 0 2 0 C2.5534764 2.07553648 3 3.84365964 3 6 C3.66 6.66 4.32 7.32 5 8 C-2.92 8.33 -10.84 8.66 -19 9 C-17.68 7.35 -16.36 5.7 -15 4 C-14.505 4.391875 -14.01 4.78375 -13.5 5.1875 C-10.06969973 6.30234759 -8.17502314 5.29468272 -4.90234375 4.01953125 C-2.87118806 2.93096526 -1.61323864 1.6223788 0 0 Z " fill="#D2BBA2" transform="translate(198,270)"/>
<path d="M0 0 C-1.51934706 3.03869411 -3.98004772 3.64410306 -7 5 C-7.66 5 -8.32 5 -9 5 C-9 5.66 -9 6.32 -9 7 C-7.68 7 -6.36 7 -5 7 C-5.33 8.65 -5.66 10.3 -6 12 C-6.66 12 -7.32 12 -8 12 C-8 12.66 -8 13.32 -8 14 C-9.32 13.67 -10.64 13.34 -12 13 C-12.875 9.8125 -12.875 9.8125 -13 6 C-9.49930575 1.49584942 -5.51025644 -0.14500675 0 0 Z " fill="#714E3A" transform="translate(193,245)"/>
<path d="M0 0 C0 2.31 0 4.62 0 7 C-1.19625 6.979375 -2.3925 6.95875 -3.625 6.9375 C-7.18004869 6.93117429 -10.50555624 7.30111125 -14 8 C-14 7.34 -14 6.68 -14 6 C-14.99 5.34 -15.98 4.68 -17 4 C-16.15695312 3.79503906 -15.31390625 3.59007812 -14.4453125 3.37890625 C-13.34960938 3.10949219 -12.25390625 2.84007812 -11.125 2.5625 C-10.03445313 2.29566406 -8.94390625 2.02882813 -7.8203125 1.75390625 C-1.25906736 0 -1.25906736 0 0 0 Z " fill="#DBCEBB" transform="translate(339,279)"/>
<path d="M0 0 C1.18306728 2.36613456 1.13354608 3.86780736 1.125 6.5 C1.12757813 7.2940625 1.13015625 8.088125 1.1328125 8.90625 C1 11 1 11 0 13 C-2.4375 12.625 -2.4375 12.625 -5 12 C-6.42041821 9.15916359 -6.31452272 7.14522722 -6 4 C-2.84210526 0 -2.84210526 0 0 0 Z " fill="#DAC5AB" transform="translate(196,257)"/>
<path d="M0 0 C0.09796875 0.65226563 0.1959375 1.30453125 0.296875 1.9765625 C1.26486738 7.63431108 2.43491083 11.48422039 6 16 C4.5199159 15.88637738 3.04089926 15.75877092 1.5625 15.625 C0.73878906 15.55539062 -0.08492187 15.48578125 -0.93359375 15.4140625 C-1.61550781 15.27742188 -2.29742187 15.14078125 -3 15 C-4.71683157 11.56633687 -4.39429424 7.76250266 -4 4 C-1.75609756 0 -1.75609756 0 0 0 Z " fill="#EAE1D9" transform="translate(129,250)"/>
<path d="M0 0 C0.99 0.33 1.98 0.66 3 1 C3.36644578 2.55966592 3.71760862 4.12292651 4.0625 5.6875 C4.25972656 6.55761719 4.45695312 7.42773438 4.66015625 8.32421875 C5.02032279 11.16001276 4.70909969 13.24789982 4 16 C2.02 16.66 0.04 17.32 -2 18 C-1.67 16.35 -1.34 14.7 -1 13 C-0.34 13 0.32 13 1 13 C0.835 12.34 0.67 11.68 0.5 11 C-0.12183299 7.26900206 -0.06408926 3.78126622 0 0 Z " fill="#DDCEBB" transform="translate(368,249)"/>
<path d="M0 0 C2.59619141 0.13867188 2.59619141 0.13867188 4.59619141 2.13867188 C-5.02759403 5.04895751 -16.79318367 3.04015424 -26.71630859 2.63867188 C-27.94542969 2.59097656 -29.17455078 2.54328125 -30.44091797 2.49414062 C-33.42864347 2.37788671 -36.41625982 2.25936795 -39.40380859 2.13867188 C-39.40380859 1.80867188 -39.40380859 1.47867187 -39.40380859 1.13867188 C-34.3867489 0.99517466 -29.3696592 0.85279374 -24.35253906 0.71142578 C-22.64745233 0.66322659 -20.94237404 0.61472783 -19.23730469 0.56591797 C-16.77980701 0.49562177 -14.32228052 0.4264198 -11.86474609 0.35742188 C-11.10825775 0.3355481 -10.35176941 0.31367432 -9.57235718 0.2911377 C-4.7855518 0.16620228 -4.7855518 0.16620228 0 0 Z " fill="#8B6D58" transform="translate(276.40380859375,287.861328125)"/>
<path d="M0 0 C0.8971875 0.309375 0.8971875 0.309375 1.8125 0.625 C1.19761719 1.08648437 0.58273438 1.54796875 -0.05078125 2.0234375 C-6.14897476 6.94478665 -8.80945039 10.89525044 -10.1875 18.625 C-11.6796875 17.29296875 -11.6796875 17.29296875 -13.1875 15.625 C-13.443269 10.12596642 -10.47123637 7.19608078 -6.9765625 3.359375 C-2.98365048 -0.51148294 -2.98365048 -0.51148294 0 0 Z " fill="#9A7B64" transform="translate(142.1875,236.375)"/>
<path d="M0 0 C0 0.33 0 0.66 0 1 C-1.65 1.33 -3.3 1.66 -5 2 C-4.34 2.66 -3.68 3.32 -3 4 C-4.66289062 4.19916016 -4.66289062 4.19916016 -6.359375 4.40234375 C-7.8229327 4.58059757 -9.28647349 4.75899028 -10.75 4.9375 C-11.47960937 5.02451172 -12.20921875 5.11152344 -12.9609375 5.20117188 C-16.37584442 5.62027409 -19.67603543 6.117274 -23 7 C-23 6.34 -23 5.68 -23 5 C-25.31 5.33 -27.62 5.66 -30 6 C-29.67 5.34 -29.34 4.68 -29 4 C-26.42096121 3.57164754 -23.90977825 3.24845532 -21.3125 3 C-14.00105022 2.28149538 -7.34012952 -0.29360518 0 0 Z " fill="#C8B29C" transform="translate(203,217)"/>
<path d="M0 0 C5.94 1.65 11.88 3.3 18 5 C18 5.33 18 5.66 18 6 C16.02 6 14.04 6 12 6 C12 6.66 12 7.32 12 8 C9.69 8 7.38 8 5 8 C5 6.68 5 5.36 5 4 C2.525 3.01 2.525 3.01 0 2 C0 1.34 0 0.68 0 0 Z " fill="#DBCBB7" transform="translate(156,278)"/>
<path d="M0 0 C0 0.66 0 1.32 0 2 C0.99 2.33 1.98 2.66 3 3 C2.67 4.65 2.34 6.3 2 8 C-0.64 8.33 -3.28 8.66 -6 9 C-5.38983051 3.50847458 -5.38983051 3.50847458 -3.5625 1.125 C-2 0 -2 0 0 0 Z " fill="#D7C0A8" transform="translate(305,246)"/>
<path d="M0 0 C0.66 0 1.32 0 2 0 C2 0.99 2 1.98 2 3 C3.3921875 2.7525 3.3921875 2.7525 4.8125 2.5 C8 2 8 2 11 2 C11 4.31 11 6.62 11 9 C9.02 9.99 7.04 10.98 5 12 C4.731875 10.906875 4.46375 9.81375 4.1875 8.6875 C3.08641352 5.26833673 2.57525074 4.22408019 0 2 C0 1.34 0 0.68 0 0 Z " fill="#F0EAE5" transform="translate(367,245)"/>
<path d="M0 0 C-0.33 1.32 -0.66 2.64 -1 4 C-5.62 4.33 -10.24 4.66 -15 5 C-14 2 -14 2 -10.875 0.25 C-7.03417025 -1.28474149 -4.03368363 -0.90552081 0 0 Z " fill="#6E4835" transform="translate(317,236)"/>
<path d="M0 0 C0 0.66 0 1.32 0 2 C0.66 2.33 1.32 2.66 2 3 C-6.91 5.97 -6.91 5.97 -16 9 C-16 8.01 -16 7.02 -16 6 C-15.21625 5.896875 -14.4325 5.79375 -13.625 5.6875 C-10.66954819 5.22404978 -10.66954819 5.22404978 -9 2 C-5.64717651 0.32358826 -3.83880578 0 0 0 Z " fill="#E9DCCA" transform="translate(167,221)"/>
<path d="M0 0 C0.33 0.66 0.66 1.32 1 2 C3.34907875 2.68931344 3.34907875 2.68931344 6.0625 3.125 C6.98160156 3.29257812 7.90070313 3.46015625 8.84765625 3.6328125 C9.91306641 3.81457031 9.91306641 3.81457031 11 4 C11 4.33 11 4.66 11 5 C8.37472811 5.05382106 5.75055287 5.09358313 3.125 5.125 C2.37863281 5.14175781 1.63226563 5.15851563 0.86328125 5.17578125 C-1.09194461 5.1933959 -3.04742021 5.10320189 -5 5 C-5.66 4.34 -6.32 3.68 -7 3 C-7 2.01 -7 1.02 -7 0 C-3.98968256 -0.93423645 -3.13349732 -1.04449911 0 0 Z " fill="#E2CDB0" transform="translate(226,283)"/>
<path d="M0 0 C0.33 0 0.66 0 1 0 C1.15855469 0.58007812 1.31710938 1.16015625 1.48046875 1.7578125 C2.70193559 5.84736445 3.82300651 9.15244483 6.6875 12.375 C9 15 9 15 9 18 C4.92736791 16.49161774 2.15842594 13.70246847 0 10 C-0.93569398 6.57548736 -1.6434012 3.28680239 0 0 Z " fill="#856550" transform="translate(130,250)"/>
<path d="M0 0 C0 1.65 0 3.3 0 5 C-2.70879335 6.35439668 -5.00933268 6.06501451 -8 6 C-8 5.01 -8 4.02 -8 3 C-8.99 3.33 -9.98 3.66 -11 4 C-11 3.34 -11 2.68 -11 2 C-7.12315913 0.80712589 -4.08378077 0 0 0 Z " fill="#E0D3C6" transform="translate(307,287)"/>
<path d="M0 0 C0.99 0 1.98 0 3 0 C3 0.66 3 1.32 3 2 C3.66 2 4.32 2 5 2 C5.33 4.97 5.66 7.94 6 11 C-1.09821429 4.97321429 -1.09821429 4.97321429 -4 2 C-2.68 2 -1.36 2 0 2 C0 1.34 0 0.68 0 0 Z " fill="#DCCFB8" transform="translate(361,234)"/>
<path d="M0 0 C1.175625 0.14985352 1.175625 0.14985352 2.375 0.30273438 C4.29266838 0.54828947 6.20898925 0.80432929 8.125 1.0625 C7.795 2.0525 7.465 3.0425 7.125 4.0625 C-0.2821181 3.43977768 -7.55694135 2.35762034 -14.875 1.0625 C-14.875 0.7325 -14.875 0.4025 -14.875 0.0625 C-9.66266344 -1.12817752 -5.21754025 -0.71188473 0 0 Z " fill="#AC917B" transform="translate(311.875,219.9375)"/>
<path d="M0 0 C-6.4520637 3.37703759 -12.87359127 3.12675431 -20 3 C-19 1 -19 1 -17.03125 0.33203125 C-10.98661347 -0.90861174 -6.0950285 -0.98306911 0 0 Z " fill="#EADECF" transform="translate(194,218)"/>
<path d="M0 0 C0.33 0 0.66 0 1 0 C1.33 12.54 1.66 25.08 2 38 C1.01 38 0.02 38 -1 38 C-0.67 25.46 -0.34 12.92 0 0 Z " fill="#C7AD96" transform="translate(247,227)"/>
<path d="M0 0 C1.875 0.25 1.875 0.25 4 1 C5.1328125 3.046875 5.1328125 3.046875 6 5 C1.33333333 7.33333333 -3.33333333 9.66666667 -8 12 C-8 11.01 -8 10.02 -8 9 C-6.35 8.67 -4.7 8.34 -3 8 C-3 7.34 -3 6.68 -3 6 C-2.34 5.67 -1.68 5.34 -1 5 C-0.34444881 2.47266765 -0.34444881 2.47266765 0 0 Z " fill="#E5D6C4" transform="translate(145,226)"/>
<path d="M0 0 C1.16144531 0.00902344 2.32289063 0.01804688 3.51953125 0.02734375 C4.39996094 0.03894531 5.28039062 0.05054688 6.1875 0.0625 C6.1875 0.7225 6.1875 1.3825 6.1875 2.0625 C-0.83055857 3.16337193 -7.71815767 3.15983092 -14.8125 3.0625 C-10.00106169 -0.14512554 -5.68834248 -0.057458 0 0 Z " fill="#947662" transform="translate(209.8125,216.9375)"/>
<path d="M0 0 C-0.66 1.32 -1.32 2.64 -2 4 C-3.62418745 4.08090971 -5.24951745 4.13914995 -6.875 4.1875 C-7.77992188 4.22230469 -8.68484375 4.25710938 -9.6171875 4.29296875 C-10.79667969 4.14794922 -10.79667969 4.14794922 -12 4 C-12.66 3.01 -13.32 2.02 -14 1 C-12.04310963 0.63794536 -10.08442332 0.28558579 -8.125 -0.0625 C-7.03445313 -0.25972656 -5.94390625 -0.45695312 -4.8203125 -0.66015625 C-2 -1 -2 -1 0 0 Z " fill="#D1C1AD" transform="translate(322,285)"/>
<path d="M0 0 C0.33 0 0.66 0 1 0 C1.33 5.61 1.66 11.22 2 17 C3.65 15.68 5.3 14.36 7 13 C9.3125 13.25 9.3125 13.25 11 14 C9.60147088 16.79705825 7.86348142 16.90914993 5 18 C4.01 18.66 3.02 19.32 2 20 C1.34 19.67 0.68 19.34 0 19 C0 12.73 0 6.46 0 0 Z " fill="#866551" transform="translate(258,225)"/>
<path d="M0 0 C6.6 0.66 13.2 1.32 20 2 C20 2.66 20 3.32 20 4 C13.04958914 4.26618595 6.76485645 3.6120509 0 2 C0 1.34 0 0.68 0 0 Z " fill="#927863" transform="translate(283,216)"/>
<path d="M0 0 C0 0.33 0 0.66 0 1 C2.97 1.33 5.94 1.66 9 2 C9 2.33 9 2.66 9 3 C5.58340509 3.05816623 2.16693795 3.09365195 -1.25 3.125 C-2.70212891 3.15013672 -2.70212891 3.15013672 -4.18359375 3.17578125 C-5.58544922 3.18544922 -5.58544922 3.18544922 -7.015625 3.1953125 C-7.87446289 3.20578613 -8.73330078 3.21625977 -9.61816406 3.22705078 C-12.17903596 2.98293323 -13.79511029 2.28990512 -16 1 C-10.61509359 0.08342019 -5.45769811 -0.11138159 0 0 Z " fill="#B29B84" transform="translate(228,215)"/>
<path d="M0 0 C0 0.66 0 1.32 0 2 C0.66 2.33 1.32 2.66 2 3 C-0.29045368 3.22127098 -2.58244764 3.4266504 -4.875 3.625 C-6.78925781 3.79902344 -6.78925781 3.79902344 -8.7421875 3.9765625 C-9.81726563 3.98429687 -10.89234375 3.99203125 -12 4 C-12.66 3.34 -13.32 2.68 -14 2 C-9.15758367 0.66416101 -5.06562383 -0.25328119 0 0 Z " fill="#9C7D66" transform="translate(293,286)"/>
<path d="M0 0 C-5.11518334 2.01915132 -10.48775908 3.11896923 -16 3 C-16.66 2.34 -17.32 1.68 -18 1 C-15.56510233 0.44293854 -13.12850409 -0.0960037 -10.6875 -0.625 C-9.65206055 -0.86476562 -9.65206055 -0.86476562 -8.59570312 -1.109375 C-3.33984375 -2.2265625 -3.33984375 -2.2265625 0 0 Z " fill="#B9A089" transform="translate(317,256)"/>
<path d="M0 0 C1.65 0.33 3.3 0.66 5 1 C4.82374165 3.37948772 4.30280227 4.70225849 2.59765625 6.37890625 C1.09350908 7.62115486 -0.45129851 8.81376056 -2 10 C-2.33 9.01 -2.66 8.02 -3 7 C-2.34 6.34 -1.68 5.68 -1 5 C-0.35232207 2.42938689 -0.35232207 2.42938689 0 0 Z " fill="#CFB7A0" transform="translate(264,241)"/>
<path d="M0 0 C0 0.66 0 1.32 0 2 C-1.89212702 2.53414112 -3.78891636 3.05178329 -5.6875 3.5625 C-6.74324219 3.85253906 -7.79898438 4.14257812 -8.88671875 4.44140625 C-12.00695382 5.00124767 -13.97693234 4.84690764 -17 4 C-14.19547298 2.48300584 -11.6142698 1.54691437 -8.5 0.875 C-7.7471875 0.70742187 -6.994375 0.53984375 -6.21875 0.3671875 C-4 0 -4 0 0 0 Z " fill="#A58A74" transform="translate(180,222)"/>
<path d="M0 0 C1.71948485 2.96948578 2.22039127 4.91452225 1.9765625 8.328125 C1.925 9.12734375 1.8734375 9.9265625 1.8203125 10.75 C1.75585938 11.575 1.69140625 12.4 1.625 13.25 C1.56828125 14.09046875 1.5115625 14.9309375 1.453125 15.796875 C1.31209668 17.86529042 1.15738212 19.9327646 1 22 C0.67 22 0.34 22 0 22 C-0.19590444 18.52125243 -0.38031592 15.04199096 -0.5625 11.5625 C-0.61857422 10.56927734 -0.67464844 9.57605469 -0.73242188 8.55273438 C-0.78076172 7.60849609 -0.82910156 6.66425781 -0.87890625 5.69140625 C-0.9260376 4.81685791 -0.97316895 3.94230957 -1.02172852 3.04125977 C-1 1 -1 1 0 0 Z " fill="#D0B9A2" transform="translate(232,234)"/>
<path d="M0 0 C1.65 0 3.3 0 5 0 C4.04367001 1.29315061 3.08486149 2.58446853 2.125 3.875 C1.59132812 4.59429687 1.05765625 5.31359375 0.5078125 6.0546875 C-1 8 -1 8 -3 10 C-3.309375 9.21625 -3.61875 8.4325 -3.9375 7.625 C-4.92875038 5.07669872 -4.92875038 5.07669872 -6 3 C-4.02 3 -2.04 3 0 3 C0 2.01 0 1.02 0 0 Z " fill="#DCCDB9" transform="translate(132,238)"/>
<path d="M0 0 C5.85845561 0.44793021 11.48313583 0.8871584 17 3 C17.33 3.99 17.66 4.98 18 6 C13.95295419 5.27595226 10.10929598 4.16553713 6.1875 2.9375 C5.02605469 2.57527344 3.86460937 2.21304688 2.66796875 1.83984375 C1.78753906 1.56269531 0.90710938 1.28554687 0 1 C0 0.67 0 0.34 0 0 Z " fill="#A18772" transform="translate(316,222)"/>
<path d="M0 0 C1.49739583 1.26953125 2.99479167 2.5390625 4.4921875 3.80859375 C6.00594079 5.0878152 6.00594079 5.0878152 8 6 C8 6.66 8 7.32 8 8 C3.51474352 7.343621 -0.66914029 6.29925791 -5 5 C-2 3 -2 3 0 3 C0 2.01 0 1.02 0 0 Z " fill="#DECEBC" transform="translate(331,219)"/>
<path d="M0 0 C4.29 0 8.58 0 13 0 C13.33 0.99 13.66 1.98 14 3 C11.36 2.67 8.72 2.34 6 2 C5.67 2.66 5.34 3.32 5 4 C3.35 4 1.7 4 0 4 C-0.33 3.34 -0.66 2.68 -1 2 C-0.67 1.34 -0.34 0.68 0 0 Z " fill="#E8E2D8" transform="translate(184,211)"/>
<path d="M0 0 C0 0.66 0 1.32 0 2 C-4.98114761 2.89405214 -9.9697924 3.47462276 -15 4 C-15 3.01 -15 2.02 -15 1 C-9.92928099 0.28832014 -5.11791642 -0.10662326 0 0 Z " fill="#ECE2D6" transform="translate(278,291)"/>
<path d="M0 0 C1.0828125 0.5259375 1.0828125 0.5259375 2.1875 1.0625 C5.34933813 2.11644604 6.82093053 1.68736637 10 1 C10.66 1.66 11.32 2.32 12 3 C6.77487721 4.46670113 2.4185766 5.22577402 -3 5 C-2.01 3.35 -1.02 1.7 0 0 Z " fill="#C1A98F" transform="translate(182,274)"/>
<path d="M0 0 C0.66 1.32 1.32 2.64 2 4 C1.01 4.495 1.01 4.495 0 5 C-0.65555119 7.52733235 -0.65555119 7.52733235 -1 10 C-3.31 10.33 -5.62 10.66 -8 11 C-7.38511719 10.31164062 -7.38511719 10.31164062 -6.7578125 9.609375 C-6.21898437 8.99578125 -5.68015625 8.3821875 -5.125 7.75 C-4.59132813 7.14671875 -4.05765625 6.5434375 -3.5078125 5.921875 C-2.0202513 4.02581254 -0.99677564 2.18709995 0 0 Z " fill="#D3C0AB" transform="translate(367,258)"/>
<path d="M0 0 C1.32 0 2.64 0 4 0 C4 0.99 4 1.98 4 3 C5.65 2.34 7.3 1.68 9 1 C9 2.32 9 3.64 9 5 C6.36 5 3.72 5 1 5 C0.67 3.35 0.34 1.7 0 0 Z " fill="#E0D5C3" transform="translate(287,290)"/>
<path d="M0 0 C1.3921875 0.0928125 1.3921875 0.0928125 2.8125 0.1875 C2.8125 0.5175 2.8125 0.8475 2.8125 1.1875 C6.1125 1.5175 9.4125 1.8475 12.8125 2.1875 C12.8125 2.5175 12.8125 2.8475 12.8125 3.1875 C6.5425 3.1875 0.2725 3.1875 -6.1875 3.1875 C-3.1875 0.1875 -3.1875 0.1875 0 0 Z " fill="#CEB69A" transform="translate(260.1875,285.8125)"/>
<path d="M0 0 C2.97 0 5.94 0 9 0 C8.34 1.32 7.68 2.64 7 4 C4.03 4 1.06 4 -2 4 C-1.34 2.68 -0.68 1.36 0 0 Z " fill="#7F614C" transform="translate(305,269)"/>
<path d="M0 0 C-1 1 -1 1 -4.37890625 1.09765625 C-5.77347077 1.09098369 -7.16801743 1.07902532 -8.5625 1.0625 C-9.27341797 1.05798828 -9.98433594 1.05347656 -10.71679688 1.04882812 C-12.47790013 1.03700864 -14.23896036 1.01907263 -16 1 C-15.67 0.34 -15.34 -0.32 -15 -1 C-12.12890625 -1.484375 -12.12890625 -1.484375 -8.5625 -1.75 C-6.80099609 -1.89695313 -6.80099609 -1.89695313 -5.00390625 -2.046875 C-2 -2 -2 -2 0 0 Z " fill="#AF9880" transform="translate(318,241)"/>
<path d="M0 0 C-2.38125464 2.38125464 -4.33857567 3.00186241 -7.5 4.125 C-8.4796875 4.47820312 -9.459375 4.83140625 -10.46875 5.1953125 C-13 6 -13 6 -15 6 C-15 5.34 -15 4.68 -15 4 C-9.77228537 0.95842058 -6.07328688 -0.50610724 0 0 Z " fill="#8F725D" transform="translate(168,226)"/>
<path d="M0 0 C1.32 0.33 2.64 0.66 4 1 C3.01 1 2.02 1 1 1 C1 1.66 1 2.32 1 3 C3.475 3.99 3.475 3.99 6 5 C6 5.33 6 5.66 6 6 C4.18674449 5.88648483 2.37436643 5.75887039 0.5625 5.625 C-0.95150391 5.52058594 -0.95150391 5.52058594 -2.49609375 5.4140625 C-3.32238281 5.27742187 -4.14867187 5.14078125 -5 5 C-5.33 4.34 -5.66 3.68 -6 3 C-4.35 3 -2.7 3 -1 3 C-0.67 2.01 -0.34 1.02 0 0 Z " fill="#F7F1EA" transform="translate(190,212)"/>
<path d="M0 0 C2.97 1.65 5.94 3.3 9 5 C9 5.99 9 6.98 9 8 C5.00499382 6.6302836 2.19990508 4.74277578 -1 2 C-0.67 1.34 -0.34 0.68 0 0 Z " fill="#967764" transform="translate(139,266)"/>
<path d="M0 0 C0.66 0.33 1.32 0.66 2 1 C2 1.33 2 1.66 2 2 C2.99 2 3.98 2 5 2 C4.34 3.98 3.68 5.96 3 8 C2.01 8 1.02 8 0 8 C0.33 6.68 0.66 5.36 1 4 C-0.32 4 -1.64 4 -3 4 C-3 3.34 -3 2.68 -3 2 C-2.01 1.34 -1.02 0.68 0 0 Z " fill="#DDC7AF" transform="translate(187,248)"/>
<path d="M0 0 C0.33 0.66 0.66 1.32 1 2 C0.34 2 -0.32 2 -1 2 C-1.33 3.32 -1.66 4.64 -2 6 C-3.32 6 -4.64 6 -6 6 C-6 5.34 -6 4.68 -6 4 C-6.99 3.34 -7.98 2.68 -9 2 C-6.03 1.34 -3.06 0.68 0 0 Z " fill="#D9CABC" transform="translate(331,281)"/>
<path d="M0 0 C1.48280196 0.78483659 2.9611498 1.57809334 4.4375 2.375 C5.67306641 3.03628906 5.67306641 3.03628906 6.93359375 3.7109375 C9 5 9 5 10 7 C5.545 6.01 5.545 6.01 1 5 C0.67 3.35 0.34 1.7 0 0 Z " fill="#EAE0D4" transform="translate(137,268)"/>
<path d="M0 0 C0.66 0 1.32 0 2 0 C3.99785435 4.1205746 4.17835515 7.45194365 4 12 C3.67 12 3.34 12 3 12 C3 10.02 3 8.04 3 6 C2.34 6 1.68 6 1 6 C1 7.65 1 9.3 1 11 C0.67 11 0.34 11 0 11 C0 7.37 0 3.74 0 0 Z " fill="#A2856E" transform="translate(365,245)"/>
<path d="M0 0 C0.66 0 1.32 0 2 0 C2 0.66 2 1.32 2 2 C3.32 2.66 4.64 3.32 6 4 C2.59598052 5.13732426 0.22543336 4.83989957 -3.25 4.0625 C-4.14203125 3.86785156 -5.0340625 3.67320312 -5.953125 3.47265625 C-6.62859375 3.31667969 -7.3040625 3.16070312 -8 3 C-8 2.67 -8 2.34 -8 2 C-6.865625 1.855625 -5.73125 1.71125 -4.5625 1.5625 C-1.19222799 1.38828522 -1.19222799 1.38828522 0 0 Z " fill="#E4D4BF" transform="translate(311,216)"/>
<path d="M0 0 C1.98 0 3.96 0 6 0 C6 1.32 6 2.64 6 4 C4.02 4.33 2.04 4.66 0 5 C0 3.35 0 1.7 0 0 Z " fill="#DFD4C1" transform="translate(257,292)"/>
<path d="M0 0 C3.3 0.66 6.6 1.32 10 2 C10 2.33 10 2.66 10 3 C6.7 3.33 3.4 3.66 0 4 C0 2.68 0 1.36 0 0 Z " fill="#D5C2AE" transform="translate(164,281)"/>
<path d="M0 0 C0 0.66 0 1.32 0 2 C-1.26607607 2.53229326 -2.53810412 3.05044544 -3.8125 3.5625 C-4.52019531 3.85253906 -5.22789062 4.14257812 -5.95703125 4.44140625 C-8 5 -8 5 -11 4 C-10 2 -10 2 -6.625 0.875 C-3 0 -3 0 0 0 Z " fill="#826351" transform="translate(344,275)"/>
<path d="M0 0 C0 1.32 0 2.64 0 4 C-4.62 3.34 -9.24 2.68 -14 2 C-14 1.67 -14 1.34 -14 1 C-9.27616037 0.34843591 -4.78025483 -0.11950637 0 0 Z " fill="#D3BFA6" transform="translate(313,242)"/>
<path d="M0 0 C0.33 1.32 0.66 2.64 1 4 C-2.96 3.67 -6.92 3.34 -11 3 C-7.72430636 -0.27569364 -4.48909309 -0.12469703 0 0 Z " fill="#CEBA9D" transform="translate(245,230)"/>
<path d="M0 0 C1.60407328 -0.02708567 3.2082785 -0.04643483 4.8125 -0.0625 C5.70582031 -0.07410156 6.59914062 -0.08570313 7.51953125 -0.09765625 C10 0 10 0 13 1 C12.67 1.66 12.34 2.32 12 3 C7.45194365 3.17835515 4.1205746 2.99785435 0 1 C0 0.67 0 0.34 0 0 Z " fill="#F1E9E0" transform="translate(203,290)"/>
<path d="M0 0 C0.66 0.33 1.32 0.66 2 1 C1.34 2.65 0.68 4.3 0 6 C-0.66 6 -1.32 6 -2 6 C-2.33 7.32 -2.66 8.64 -3 10 C-3.33 10 -3.66 10 -4 10 C-4.25 7.25 -4.25 7.25 -4 4 C-2 1.625 -2 1.625 0 0 Z " fill="#E5D0B9" transform="translate(263,242)"/>
<path d="M0 0 C0.8971875 0.309375 0.8971875 0.309375 1.8125 0.625 C-3.8125 5.625 -3.8125 5.625 -7.1875 5.625 C-5.69046729 2.17030914 -4.27938051 -0.73360809 0 0 Z " fill="#90725A" transform="translate(142.1875,236.375)"/>
<path d="M0 0 C1.65 0 3.3 0 5 0 C4.49396008 2.16874252 4.00016187 3.99967627 3 6 C1.68 5.34 0.36 4.68 -1 4 C-0.67 2.68 -0.34 1.36 0 0 Z " fill="#E2D0B5" transform="translate(256,218)"/>
<path d="M0 0 C0.66 0.33 1.32 0.66 2 1 C1.37240135 3.92879371 0.41377341 6.36095629 -1 9 C-0.34 9 0.32 9 1 9 C1 9.66 1 10.32 1 11 C0.34 11 -0.32 11 -1 11 C-1.33 11.66 -1.66 12.32 -2 13 C-2.16682272 8.07872966 -2.24828052 4.49656104 0 0 Z " fill="#D6C0A5" transform="translate(134,245)"/>
<path d="M0 0 C0.66 0 1.32 0 2 0 C2.49230769 6.4 2.49230769 6.4 0 9.4375 C-0.99 10.2109375 -0.99 10.2109375 -2 11 C-2 7.07103605 -0.99700137 3.80106772 0 0 Z " fill="#E6D0B7" transform="translate(278,240)"/>
<path d="M0 0 C0.33 0 0.66 0 1 0 C1.33 2.97 1.66 5.94 2 9 C0.68 8.34 -0.64 7.68 -2 7 C-2.125 4.625 -2.125 4.625 -2 2 C-1.34 1.34 -0.68 0.68 0 0 Z " fill="#D8C8B8" transform="translate(128,250)"/>
<path d="M0 0 C0 0.66 0 1.32 0 2 C2.64 2 5.28 2 8 2 C8 2.33 8 2.66 8 3 C3.38 3.33 -1.24 3.66 -6 4 C-5.67 3.01 -5.34 2.02 -5 1 C-3 0 -3 0 0 0 Z " fill="#745540" transform="translate(308,237)"/>
<path d="M0 0 C0.99 0.66 1.98 1.32 3 2 C3 2.66 3 3.32 3 4 C0.04335481 5.4783226 -2.74229737 5.06032783 -6 5 C-6 4.34 -6 3.68 -6 3 C-4.35 3 -2.7 3 -1 3 C-0.67 2.01 -0.34 1.02 0 0 Z " fill="#EBE0D4" transform="translate(328,218)"/>
<path d="M0 0 C3.63 0.66 7.26 1.32 11 2 C11 2.33 11 2.66 11 3 C7.37 3 3.74 3 0 3 C0 2.01 0 1.02 0 0 Z " fill="#D6C2B0" transform="translate(176,284)"/>
<path d="M0 0 C0.66 0.33 1.32 0.66 2 1 C1.34 2.32 0.68 3.64 0 5 C-1.65 4.67 -3.3 4.34 -5 4 C-3 1 -3 1 0 0 Z " fill="#E4DCD2" transform="translate(320,284)"/>
<path d="M0 0 C1.20628008 2.33214148 2.1654738 4.49642139 3 7 C0.525 8.485 0.525 8.485 -2 10 C-2 9.34 -2 8.68 -2 8 C-2.99 7.67 -3.98 7.34 -5 7 C-3.68 7 -2.36 7 -1 7 C-0.67 4.69 -0.34 2.38 0 0 Z " fill="#7F5E4A" transform="translate(197,263)"/>
<path d="M0 0 C0.66 0 1.32 0 2 0 C2.33 2.97 2.66 5.94 3 9 C1.35 7.35 -0.3 5.7 -2 4 C-1.01 3.67 -0.02 3.34 1 3 C0.67 2.01 0.34 1.02 0 0 Z " fill="#E2D5C4" transform="translate(364,236)"/>
<path d="M0 0 C3.125 -0.1875 3.125 -0.1875 6 0 C6.33 0.99 6.66 1.98 7 3 C4.03 3 1.06 3 -2 3 C-1.34 2.01 -0.68 1.02 0 0 Z " fill="#E6D2B8" transform="translate(163,228)"/>
<path d="M0 0 C2.475 0.99 2.475 0.99 5 2 C4.34 3.32 3.68 4.64 3 6 C2.34 6 1.68 6 1 6 C1 5.34 1 4.68 1 4 C-0.32 3.34 -1.64 2.68 -3 2 C-2.01 2 -1.02 2 0 2 C0 1.34 0 0.68 0 0 Z " fill="#F2EBE2" transform="translate(338,221)"/>
<path d="M0 0 C2.64 0 5.28 0 8 0 C7.34 0.66 6.68 1.32 6 2 C6.66 2.33 7.32 2.66 8 3 C8 3.66 8 4.32 8 5 C6.68 5 5.36 5 4 5 C3.896875 4.360625 3.79375 3.72125 3.6875 3.0625 C3.460625 2.381875 3.23375 1.70125 3 1 C2.01 0.67 1.02 0.34 0 0 Z " fill="#D0BEAE" transform="translate(213,290)"/>
<path d="M0 0 C0.66 0 1.32 0 2 0 C2.125 6.75 2.125 6.75 1 9 C0.34 9 -0.32 9 -1 9 C-0.67 6.03 -0.34 3.06 0 0 Z " fill="#8C6D54" transform="translate(366,251)"/>
<path d="M0 0 C0.66 0.66 1.32 1.32 2 2 C4.57061311 2.64767793 4.57061311 2.64767793 7 3 C7 3.33 7 3.66 7 4 C3.37 4.33 -0.26 4.66 -4 5 C-2.68 3.35 -1.36 1.7 0 0 Z " fill="#E1CFB5" transform="translate(300,239)"/>
<path d="M0 0 C0 0.99 0 1.98 0 3 C-1.53125 4.38671875 -1.53125 4.38671875 -3.5 5.6875 C-4.47453125 6.34298828 -4.47453125 6.34298828 -5.46875 7.01171875 C-5.9740625 7.33785156 -6.479375 7.66398438 -7 8 C-7.66 7.67 -8.32 7.34 -9 7 C-7.87720538 6.01830524 -6.75168527 5.03972702 -5.625 4.0625 C-4.68527344 3.24458984 -4.68527344 3.24458984 -3.7265625 2.41015625 C-2 1 -2 1 0 0 Z " fill="#D6BDA3" transform="translate(145,236)"/>
<path d="M0 0 C2.97 0.99 5.94 1.98 9 3 C9 3.33 9 3.66 9 4 C5.37 4 1.74 4 -2 4 C-2 3.34 -2 2.68 -2 2 C-1.34 2 -0.68 2 0 2 C0 1.34 0 0.68 0 0 Z " fill="#E2CFB5" transform="translate(229,219)"/>
<path d="M0 0 C0.66 0 1.32 0 2 0 C2 1.32 2 2.64 2 4 C2.99 4.33 3.98 4.66 5 5 C3.35 5.33 1.7 5.66 0 6 C-0.38218767 4.34385343 -0.71395102 2.67542976 -1 1 C-0.67 0.67 -0.34 0.34 0 0 Z " fill="#E4D6BE" transform="translate(279,280)"/>
<path d="M0 0 C3.3 0.33 6.6 0.66 10 1 C6.1496895 3.56687367 4.41430237 2.83288724 0 2 C0 1.34 0 0.68 0 0 Z " fill="#9C7E64" transform="translate(167,280)"/>
<path d="M0 0 C0.33 0 0.66 0 1 0 C1.33 3.63 1.66 7.26 2 11 C1.01 11.495 1.01 11.495 0 12 C-0.92844389 7.66726186 -0.92844389 4.33273814 0 0 Z " fill="#DFD8CC" transform="translate(371,253)"/>
<path d="M0 0 C0.99 0 1.98 0 3 0 C3 1.32 3 2.64 3 4 C0.03 4 -2.94 4 -6 4 C-6 3.67 -6 3.34 -6 3 C-5.195625 2.87625 -4.39125 2.7525 -3.5625 2.625 C-2.716875 2.41875 -1.87125 2.2125 -1 2 C-0.67 1.34 -0.34 0.68 0 0 Z " fill="#EDDCC3" transform="translate(253,218)"/>
<path d="M0 0 C2.31 0 4.62 0 7 0 C7.33 0.99 7.66 1.98 8 3 C5.03 2.67 2.06 2.34 -1 2 C-0.67 1.34 -0.34 0.68 0 0 Z " fill="#BAA28B" transform="translate(252,265)"/>
<path d="M0 0 C0.33 0 0.66 0 1 0 C1.33 3.63 1.66 7.26 2 11 C1.01 11 0.02 11 -1 11 C-0.67 7.37 -0.34 3.74 0 0 Z " fill="#D2BBA4" transform="translate(247,254)"/>
<path d="M0 0 C0.66 0.33 1.32 0.66 2 1 C1 3 1 3 -2.0625 4.125 C-3.5165625 4.558125 -3.5165625 4.558125 -5 5 C-5.66 4.34 -6.32 3.68 -7 3 C-4.69631264 1.93347808 -2.35981813 0.93578995 0 0 Z " fill="#D5BEA6" transform="translate(160,229)"/>
<path d="M0 0 C-1.32 1.32 -2.64 2.64 -4 4 C-4 3.34 -4 2.68 -4 2 C-4.66 2 -5.32 2 -6 2 C-6.33 2.66 -6.66 3.32 -7 4 C-7 3.01 -7 2.02 -7 1 C-3.375 -1.125 -3.375 -1.125 0 0 Z " fill="#724D3C" transform="translate(223,225)"/>
<path d="M0 0 C0.33 0 0.66 0 1 0 C1 2.31 1 4.62 1 7 C-0.98 7 -2.96 7 -5 7 C-3.68 6.34 -2.36 5.68 -1 5 C-1.33 4.01 -1.66 3.02 -2 2 C-1.34 1.34 -0.68 0.68 0 0 Z " fill="#E8E0D6" transform="translate(338,279)"/>
<path d="M0 0 C0 0.99 0 1.98 0 3 C-2.64 2.67 -5.28 2.34 -8 2 C-4.77208445 -0.1519437 -3.71599191 -0.20086443 0 0 Z " fill="#A5866F" transform="translate(320,282)"/>
<path d="M0 0 C1.485 0.99 1.485 0.99 3 2 C3 2.66 3 3.32 3 4 C3.99 4 4.98 4 6 4 C5.67 4.66 5.34 5.32 5 6 C3.68 6 2.36 6 1 6 C0.67 4.02 0.34 2.04 0 0 Z " fill="#CEB49D" transform="translate(207,261)"/>
<path d="M0 0 C0 0.33 0 0.66 0 1 C-3.3 1 -6.6 1 -10 1 C-9 -1 -9 -1 -7.25 -1.75 C-4.35569775 -2.07158914 -2.59934027 -1.22746624 0 0 Z " fill="#E5DAC5" transform="translate(184,220)"/>
</svg>
